<svg width="647" height="419" viewBox="0 0 647 419" fill="none" xmlns="http://www.w3.org/2000/svg">
<g clip-path="url(#clip0_216_2)">
<path d="M599.72 383.04L496.56 404.74L485.35 332.62L588.52 310.92L599.72 383.04Z" fill="#C7C7C7"/>
<path d="M520.65 317.49L484.19 325.16L485.35 332.62L523.9 324.52L520.65 317.49Z" fill="#C7C7C7"/>
<path d="M632.57 351.37L526.32 331.78L540.28 261.98L646.53 281.57L632.57 351.37Z" fill="#EBEBEB"/>
<path d="M629.02 346.21L531.59 328.24L543.82 267.14L641.25 285.11L629.02 346.21Z" fill="white"/>
<path d="M628.61 302.53C627.47 308.28 621.79 312.07 615.94 310.99C610.09 309.91 606.27 304.37 607.41 298.62C608.55 292.87 614.23 289.08 620.08 290.16C625.93 291.24 629.75 296.78 628.61 302.53Z" fill="#DBDBDB"/>
<path d="M598.75 340.73L531.64 328.35L574.08 289.86L598.75 340.73Z" fill="#EBEBEB"/>
<path d="M625.05 345.6L569.65 335.38L603.14 311.39L625.05 345.6Z" fill="#DBDBDB"/>
<path d="M599.65 383.05L496.48 404.75L474.4 339.3L577.57 317.6L599.65 383.05Z" fill="#DBDBDB"/>
<path d="M508.57 324.86L472.11 332.52L474.4 339.3L512.95 331.19L508.57 324.86Z" fill="#DBDBDB"/>
<path d="M96.13 105.02L15.66 117.22L0 13.91L59.75 4.86L83.46 21.4L96.13 105.02Z" fill="#EBEBEB"/>
<path d="M59.75 4.86L83.46 21.4L62.74 24.54L59.75 4.86Z" fill="#DBDBDB"/>
<path d="M10.8846 32.7149L55.6234 25.9328L55.2217 23.2831L10.4829 30.0652L10.8846 32.7149Z" fill="#DBDBDB"/>
<path d="M11.8919 39.4034L56.6307 32.6214L56.2291 29.9716L11.4902 36.7537L11.8919 39.4034Z" fill="#DBDBDB"/>
<path d="M12.9106 46.1004L57.6494 39.3183L57.2477 36.6686L12.5089 43.4507L12.9106 46.1004Z" fill="#DBDBDB"/>
<path d="M13.9212 52.7996L79.4822 42.861L79.0805 40.2113L13.5195 50.1499L13.9212 52.7996Z" fill="#DBDBDB"/>
<path d="M14.9384 59.4867L80.4994 49.5481L80.0977 46.8984L14.5367 56.8369L14.9384 59.4867Z" fill="#DBDBDB"/>
<path d="M15.9472 66.1951L81.5082 56.2565L81.1065 53.6068L15.5455 63.5454L15.9472 66.1951Z" fill="#DBDBDB"/>
<path d="M16.9644 72.8822L82.5254 62.9436L82.1237 60.2939L16.5627 70.2324L16.9644 72.8822Z" fill="#DBDBDB"/>
<path d="M17.9733 79.5806L83.5343 69.642L83.1326 66.9923L17.5717 76.9309L17.9733 79.5806Z" fill="#DBDBDB"/>
<path d="M18.9905 86.2777L84.5515 76.3391L84.1498 73.6894L18.5889 83.628L18.9905 86.2777Z" fill="#DBDBDB"/>
<path d="M19.9993 92.9761L85.5603 83.0376L85.1586 80.3878L19.5977 90.3264L19.9993 92.9761Z" fill="#DBDBDB"/>
<path d="M21.0165 99.6632L86.5775 89.7246L86.1758 87.0749L20.6149 97.0135L21.0165 99.6632Z" fill="#DBDBDB"/>
<path d="M22.0353 106.372L87.5963 96.4331L87.1946 93.7833L21.6337 103.722L22.0353 106.372Z" fill="#DBDBDB"/>
<path d="M12.7 417.65L90.34 417.41L167.98 417.32L323.26 417.15L478.54 417.32L556.18 417.41L633.82 417.65L556.18 417.9L478.54 417.99L323.26 418.15L167.98 417.98L90.34 417.9L12.7 417.65Z" fill="#263238"/>
<path d="M320.51 403.38H143.76V418.15H320.51V403.38Z" fill="#C7C7C7"/>
<path d="M299.46 403.39H164.8L168.23 377.76L168.4 376.55L168.71 374.15L168.87 372.94L169.2 370.53L169.24 370.16L169.36 369.32L169.68 366.92L169.84 365.71L172.24 347.8H292.03L294.29 364.69L294.4 365.51L294.78 368.31L294.88 369.12L295.02 370.16L295.26 371.92L295.36 372.73L295.74 375.55L295.85 376.35L299.46 403.39Z" fill="#DBDBDB"/>
<path d="M295.02 370.16L169.84 365.71L172.24 347.8H292.03L295.02 370.16Z" fill="#C7C7C7"/>
<path d="M458.89 48.71H15.35V357.1H458.89V48.71Z" fill="#263238"/>
<path d="M458.89 311.6H15.35V357.09H458.89V311.6Z" fill="#DBDBDB"/>
<path d="M239.51 331.29C239.51 335.44 236.15 338.8 232 338.8C227.85 338.8 224.49 335.44 224.49 331.29C224.49 327.14 227.85 323.78 232 323.78C236.15 323.78 239.51 327.14 239.51 331.29Z" fill="#37474F"/>
<path d="M437.97 68.76H36.28V290.21H437.97V68.76Z" fill="white"/>
<path d="M437.97 68.76H36.28V290.21H437.97V68.76Z" fill="white"/>
<path d="M437.97 68.76H36.28V78.78H437.97V68.76Z" fill="#455A64"/>
<path d="M43.64 73.77C43.64 74.71 42.88 75.46 41.95 75.46C41.02 75.46 40.26 74.7 40.26 73.77C40.26 72.84 41.02 72.08 41.95 72.08C42.88 72.08 43.64 72.84 43.64 73.77Z" fill="#C7C7C7"/>
<path d="M50.5601 73.77C50.5601 74.71 49.8001 75.46 48.8701 75.46C47.9401 75.46 47.1801 74.7 47.1801 73.77C47.1801 72.84 47.9401 72.08 48.8701 72.08C49.8001 72.08 50.5601 72.84 50.5601 73.77Z" fill="white"/>
<path d="M57.48 73.77C57.48 74.71 56.72 75.46 55.79 75.46C54.86 75.46 54.1 74.7 54.1 73.77C54.1 72.84 54.86 72.08 55.79 72.08C56.72 72.08 57.48 72.84 57.48 73.77Z" fill="#403D39"/>
<path d="M437.97 78.78H430.67V290.21H437.97V78.78Z" fill="#DBDBDB"/>
<path d="M434.31 165.6C433.27 165.6 432.42 164.76 432.42 163.71V82.13C432.42 81.09 433.26 80.24 434.31 80.24C435.35 80.24 436.2 81.08 436.2 82.13V163.71C436.2 164.75 435.36 165.6 434.31 165.6Z" fill="#A6A6A6"/>
<path d="M126.42 105.21H61.16V152.51H126.42V105.21Z" fill="#403D39"/>
<path d="M84.21 100.31H61.16V105.21H85.54L84.21 100.31Z" fill="#403D39"/>
<path d="M82.28 102.23H63.42V105.08H82.28V102.23Z" fill="white"/>
<path d="M126.41 152.51H61.1501L60.6801 108.14H125.94L126.41 152.51Z" fill="#403D39"/>
<path opacity="0.4" d="M126.41 152.51H61.1501L60.6801 108.14H125.94L126.41 152.51Z" fill="white"/>
<path d="M83.69 103.65H60.63L60.68 108.14H85.06L83.69 103.65Z" fill="#403D39"/>
<path opacity="0.4" d="M83.69 103.65H60.63L60.68 108.14H85.06L83.69 103.65Z" fill="white"/>
<path d="M219.02 105.21H153.76V152.51H219.02V105.21Z" fill="#37474F"/>
<path d="M176.82 100.31H153.76V105.21H178.14L176.82 100.31Z" fill="#37474F"/>
<path d="M174.89 102.23H156.03V105.08H174.89V102.23Z" fill="white"/>
<path d="M219.02 152.51H153.76L153.29 108.14H218.54L219.02 152.51Z" fill="#455A64"/>
<path d="M176.3 103.65H153.24L153.29 108.14H177.67L176.3 103.65Z" fill="#455A64"/>
<path d="M404.24 105.21H338.98V152.51H404.24V105.21Z" fill="#37474F"/>
<path d="M362.03 100.31H338.98V105.21H363.36L362.03 100.31Z" fill="#37474F"/>
<path d="M360.1 102.23H341.24V105.08H360.1V102.23Z" fill="white"/>
<path d="M404.23 152.51H338.98L338.5 108.14H403.76L404.23 152.51Z" fill="#455A64"/>
<path d="M361.51 103.65H338.45L338.5 108.14H362.89L361.51 103.65Z" fill="#455A64"/>
<path d="M126.42 173.81H61.16V221.11H126.42V173.81Z" fill="#37474F"/>
<path d="M84.21 168.91H61.16V173.81H85.54L84.21 168.91Z" fill="#37474F"/>
<path d="M82.28 170.82H63.42V173.67H82.28V170.82Z" fill="white"/>
<path d="M126.41 221.11H61.1501L60.6801 176.74H125.94L126.41 221.11Z" fill="#455A64"/>
<path d="M83.69 172.25H60.63L60.68 176.74H85.06L83.69 172.25Z" fill="#455A64"/>
<path d="M311.63 173.81H246.37V221.11H311.63V173.81Z" fill="#37474F"/>
<path d="M269.43 168.91H246.37V173.81H270.75L269.43 168.91Z" fill="#37474F"/>
<path d="M267.49 170.82H248.63V173.67H267.49V170.82Z" fill="white"/>
<path d="M311.63 221.11H246.37L245.9 176.74H311.15L311.63 221.11Z" fill="#455A64"/>
<path d="M268.9 172.25H245.85L245.9 176.74H270.28L268.9 172.25Z" fill="#455A64"/>
<path d="M219.02 173.81H153.76V221.11H219.02V173.81Z" fill="#403D39"/>
<path d="M176.82 168.91H153.76V173.81H178.14L176.82 168.91Z" fill="#403D39"/>
<path d="M174.89 170.82H156.03V173.67H174.89V170.82Z" fill="white"/>
<path d="M219.02 221.11H153.76L153.29 176.74H218.54L219.02 221.11Z" fill="#403D39"/>
<path opacity="0.4" d="M219.02 221.11H153.76L153.29 176.74H218.54L219.02 221.11Z" fill="white"/>
<path d="M176.3 172.25H153.24L153.29 176.74H177.67L176.3 172.25Z" fill="#403D39"/>
<path opacity="0.4" d="M176.3 172.25H153.24L153.29 176.74H177.67L176.3 172.25Z" fill="white"/>
<path d="M280.74 116.15H276.74V136.67H280.74V116.15Z" fill="#C7C7C7"/>
<path d="M268.47 124.41V128.41H288.99V124.41H268.47Z" fill="#C7C7C7"/>
<path d="M307.69 149.37V151.37H305.69" stroke="#C7C7C7" stroke-width="0.5" stroke-miterlimit="10"/>
<path d="M301.54 151.37H253.86" stroke="#C7C7C7" stroke-width="0.5" stroke-miterlimit="10"/>
<path d="M251.78 151.37H249.78V149.37" stroke="#C7C7C7" stroke-width="0.5" stroke-miterlimit="10"/>
<path d="M249.78 145.19V105.55" stroke="#C7C7C7" stroke-width="0.5" stroke-miterlimit="10"/>
<path d="M249.78 103.46V101.46H251.78" stroke="#C7C7C7" stroke-width="0.5" stroke-miterlimit="10"/>
<path d="M255.93 101.46H303.62" stroke="#C7C7C7" stroke-width="0.5" stroke-miterlimit="10"/>
<path d="M305.69 101.46H307.69V103.46" stroke="#C7C7C7" stroke-width="0.5" stroke-miterlimit="10"/>
<path d="M307.69 107.63V147.28" stroke="#C7C7C7" stroke-width="0.5" stroke-miterlimit="10"/>
<path d="M509.4 251.19H345.99L337.38 242.58V9.93L345.99 1.32H509.4L518.01 9.93V242.58L509.4 251.19Z" fill="#A6A6A6"/>
<path opacity="0.2" d="M491.2 152.47L497.72 158.99V204.86L471.62 230.96H383.19L357.61 205.38V158.53L363.96 152.18C352.93 138.3 346.36 120.73 346.36 101.63C346.36 87.59 349.92 74.38 356.17 62.86V46.11L382.08 20.2H427.7L427.55 20.29H427.7C472.63 20.29 509.04 56.7 509.04 101.63C509.04 120.86 502.37 138.54 491.2 152.46V152.47Z" fill="black"/>
<path d="M427.7 173.21C467.233 173.21 499.28 141.163 499.28 101.63C499.28 62.0975 467.233 30.05 427.7 30.05C388.167 30.05 356.12 62.0975 356.12 101.63C356.12 141.163 388.167 173.21 427.7 173.21Z" fill="#403D39"/>
<path opacity="0.6" d="M427.7 173.21C467.233 173.21 499.28 141.163 499.28 101.63C499.28 62.0975 467.233 30.05 427.7 30.05C388.167 30.05 356.12 62.0975 356.12 101.63C356.12 141.163 388.167 173.21 427.7 173.21Z" fill="white"/>
<g opacity="0.5">
<path d="M453.29 34.78L427.69 101.63L421.33 30.35C423.42 30.15 425.55 30.06 427.69 30.06C436.71 30.06 445.35 31.73 453.29 34.78Z" fill="white"/>
<path d="M427.69 101.63L394 164.79C383.2 159.03 374.06 150.57 367.46 140.31L427.69 101.63Z" fill="white"/>
<path d="M474.45 47.44L427.69 101.63L465.16 40.64C468.45 42.65 471.55 44.93 474.46 47.43L474.45 47.44Z" fill="white"/>
<path d="M429.95 173.17C429.21 173.2 428.45 173.21 427.69 173.21C425.27 173.21 422.87 173.09 420.51 172.85L427.69 101.63L429.95 173.17Z" fill="white"/>
</g>
<path d="M488.42 177.61V200.92L469.12 220.22H447.25V193.83L463.06 177.61H488.42Z" fill="#403D39"/>
<path d="M366.29 1.33V23.77L359.83 30.23H337.39V9.93L345.99 1.33H366.29Z" fill="#DBDBDB"/>
<path d="M357.39 15.78C357.39 18.85 354.9 21.34 351.83 21.34C348.76 21.34 346.27 18.85 346.27 15.78C346.27 12.71 348.76 10.22 351.83 10.22C354.9 10.22 357.39 12.71 357.39 15.78Z" fill="#A6A6A6"/>
<path d="M489.11 1.33V23.77L495.56 30.23H518.01V9.93L509.4 1.33H489.11Z" fill="#DBDBDB"/>
<path d="M498 15.78C498 18.85 500.49 21.34 503.56 21.34C506.63 21.34 509.12 18.85 509.12 15.78C509.12 12.71 506.63 10.22 503.56 10.22C500.49 10.22 498 12.71 498 15.78Z" fill="#A6A6A6"/>
<path d="M489.11 251.19V228.74L495.56 222.29H518.01V242.58L509.4 251.19H489.11Z" fill="#DBDBDB"/>
<path d="M498 236.74C498 233.67 500.49 231.18 503.56 231.18C506.63 231.18 509.12 233.67 509.12 236.74C509.12 239.81 506.63 242.3 503.56 242.3C500.49 242.3 498 239.81 498 236.74Z" fill="#A6A6A6"/>
<path d="M366.29 251.19V228.74L359.83 222.29H337.39V242.58L345.99 251.19H366.29Z" fill="#DBDBDB"/>
<path d="M357.39 236.74C357.39 233.67 354.9 231.18 351.83 231.18C348.76 231.18 346.27 233.67 346.27 236.74C346.27 239.81 348.76 242.3 351.83 242.3C354.9 242.3 357.39 239.81 357.39 236.74Z" fill="#A6A6A6"/>
<path d="M427.7 135.8C446.572 135.8 461.87 120.502 461.87 101.63C461.87 82.7584 446.572 67.46 427.7 67.46C408.828 67.46 393.53 82.7584 393.53 101.63C393.53 120.502 408.828 135.8 427.7 135.8Z" fill="#A6A6A6"/>
<path d="M447.647 121.578C458.668 110.558 458.668 92.6897 447.647 81.6691C436.627 70.6485 418.759 70.6485 407.738 81.6691C396.718 92.6897 396.718 110.558 407.738 121.578C418.759 132.599 436.627 132.599 447.647 121.578Z" fill="#C7C7C7"/>
<path d="M427.7 111C432.875 111 437.07 106.805 437.07 101.63C437.07 96.4551 432.875 92.26 427.7 92.26C422.525 92.26 418.33 96.4551 418.33 101.63C418.33 106.805 422.525 111 427.7 111Z" fill="#A6A6A6"/>
<path d="M431.49 83.87C431.49 87.25 429.79 89.98 427.69 89.98C425.59 89.98 423.89 87.24 423.89 83.87C423.89 80.5 425.59 77.76 427.69 77.76C429.79 77.76 431.49 80.5 431.49 83.87Z" fill="#A6A6A6"/>
<path d="M414.21 89.46C417.13 91.15 418.65 93.99 417.6 95.81C416.55 97.63 413.33 97.73 410.41 96.04C407.49 94.35 405.97 91.51 407.02 89.69C408.07 87.87 411.29 87.77 414.21 89.46Z" fill="#A6A6A6"/>
<path d="M410.41 107.23C413.33 105.54 416.55 105.65 417.6 107.46C418.65 109.28 417.13 112.12 414.21 113.81C411.29 115.5 408.07 115.39 407.02 113.58C405.97 111.76 407.49 108.92 410.41 107.23Z" fill="#A6A6A6"/>
<path d="M423.9 119.4C423.9 116.02 425.6 113.29 427.7 113.29C429.8 113.29 431.5 116.03 431.5 119.4C431.5 122.77 429.8 125.51 427.7 125.51C425.6 125.51 423.9 122.77 423.9 119.4Z" fill="#A6A6A6"/>
<path d="M441.18 113.81C438.26 112.12 436.74 109.28 437.79 107.46C438.84 105.64 442.06 105.54 444.98 107.23C447.9 108.92 449.42 111.76 448.37 113.58C447.32 115.4 444.1 115.5 441.18 113.81Z" fill="#A6A6A6"/>
<path d="M444.98 96.04C442.06 97.73 438.84 97.62 437.79 95.81C436.74 93.99 438.26 91.15 441.18 89.46C444.1 87.77 447.32 87.88 448.37 89.69C449.42 91.5 447.9 94.35 444.98 96.04Z" fill="#A6A6A6"/>
<path d="M435.98 193.83V220.22H386.31L367.01 200.92V165.53L370.43 162.11L399.5 193.83H435.98Z" fill="#DBDBDB"/>
<path d="M461.76 130.45C446.28 139.49 405.47 163.96 390.64 179.29C383.4 186.77 383.6 198.71 391.08 205.94C398.56 213.18 410.5 212.98 417.73 205.5C432.56 190.17 455.88 148.81 464.48 133.09C465.45 131.34 463.49 129.42 461.75 130.44L461.76 130.45ZM403.36 202.18C398.34 202.18 394.28 198.11 394.28 193.09C394.28 188.07 398.34 184.01 403.36 184.01C408.38 184.01 412.44 188.08 412.44 193.09C412.44 198.1 408.38 202.18 403.36 202.18ZM441.11 155.35C437.95 161.13 429.38 176.34 423.93 181.96C421.27 184.71 416.89 184.78 414.14 182.12C411.39 179.46 411.32 175.07 413.98 172.32C419.43 166.69 434.43 157.69 440.12 154.38C440.76 154.01 441.48 154.71 441.12 155.35H441.11Z" fill="#C7C7C7"/>
<path d="M412.45 193.09C412.45 198.11 408.39 202.18 403.37 202.18C398.35 202.18 394.29 198.11 394.29 193.09C394.29 188.07 398.35 184.01 403.37 184.01C408.39 184.01 412.45 188.08 412.45 193.09Z" fill="#A6A6A6"/>
<path d="M637.23 251.19H473.82L465.21 242.58V9.93L473.82 1.32H637.23L645.84 9.93V242.58L637.23 251.19Z" fill="#403D39"/>
<path opacity="0.2" d="M637.23 251.19H473.82L465.21 242.58V9.93L473.82 1.32H637.23L645.84 9.93V242.58L637.23 251.19Z" fill="black"/>
<path opacity="0.2" d="M645.84 58.98H465.21V66.91H645.84V58.98Z" fill="black"/>
<path opacity="0.1" d="M635.36 20.79C635.36 24.29 632.52 27.13 629.02 27.13C625.52 27.13 622.68 24.29 622.68 20.79C622.68 17.29 625.52 14.45 629.02 14.45C632.52 14.45 635.36 17.29 635.36 20.79Z" fill="black"/>
<path d="M629.02 24.17C630.887 24.17 632.4 22.6567 632.4 20.79C632.4 18.9233 630.887 17.41 629.02 17.41C627.153 17.41 625.64 18.9233 625.64 20.79C625.64 22.6567 627.153 24.17 629.02 24.17Z" fill="#403D39"/>
<path opacity="0.6" d="M630.08 20.79C630.08 21.38 629.6 21.85 629.02 21.85C628.44 21.85 627.96 21.37 627.96 20.79C627.96 20.21 628.44 19.73 629.02 19.73C629.6 19.73 630.08 20.21 630.08 20.79Z" fill="white"/>
<path d="M484.27 81.7H480.57V231.18H484.27V81.7Z" fill="#403D39"/>
<path d="M630.48 81.7H626.78V231.18H630.48V81.7Z" fill="#403D39"/>
<path opacity="0.5" d="M595.11 218.2H515.95V231.19H595.11V218.2Z" fill="#403D39"/>
<path d="M583.64 251.19H527.42V262.2H583.64V251.19Z" fill="#37474F"/>
<path d="M578.82 262.19H532.23V267.54H578.82V262.19Z" fill="#37474F"/>
<path d="M578.82 262.19H532.23V264.87L578.82 263.53V262.19Z" fill="#263238"/>
<path d="M555.53 267.54V326.39C555.53 330.27 552.39 333.41 548.51 333.41H506.98" stroke="#263238" stroke-width="6" stroke-miterlimit="10"/>
<path d="M497.62 344.05L492.96 346.11H459.03V320.73H492.96L497.62 322.79V344.05Z" fill="#263238"/>
<path d="M492.96 320.73L497.62 322.79V344.05L492.96 346.11V320.73Z" fill="#37474F"/>
<path d="M506.98 324.84H497.62V342.01H506.98V324.84Z" fill="#263238"/>
<path d="M485.41 331.69C486.34 331.69 487.09 332.44 487.09 333.37C487.09 334.3 486.34 335.05 485.41 335.05C484.48 335.05 483.73 334.3 483.73 333.37C483.73 332.44 484.48 331.69 485.41 331.69Z" fill="white"/>
<path d="M475.37 336.11C476.19 336.11 476.86 336.78 476.86 337.6C476.86 338.42 476.19 339.09 475.37 339.09C474.55 339.09 473.88 338.42 473.88 337.6C473.88 336.78 474.55 336.11 475.37 336.11Z" fill="white"/>
<path d="M485.41 333.04H470.69V333.69H485.41V333.04Z" fill="white"/>
<path d="M484.31 333.63L480.01 337.93H476.55V337.28H479.74L483.85 333.16L484.31 333.63Z" fill="white"/>
<path d="M481.28 333.16L480.82 333.62L476.62 329.42H473.88V328.77H476.89L481.28 333.16Z" fill="white"/>
<path d="M471.52 327.75V330.48H474.25V327.75H471.52Z" fill="white"/>
<path d="M470.75 331.42V335.32L466.47 333.37L470.75 331.42Z" fill="white"/>
<path d="M600.43 380.47C600.43 380.47 608.6 351.14 615.13 341.18C621.66 331.22 633.82 320.28 633.82 320.28C633.82 320.28 633.53 365.5 600.43 380.48V380.47Z" fill="#403D39"/>
<path d="M601.02 379.97C603.82 375.42 606.2 370.62 608.47 365.76C609.48 360.55 610.7 355.31 612.53 350.34C612.56 350.25 612.7 350.3 612.67 350.39C611.59 355.02 610.32 359.62 609.18 364.24C612.48 357.1 615.61 349.87 619.54 343.12C620.33 339.85 621.84 336.7 623.33 333.73C623.37 333.64 623.52 333.69 623.47 333.78C622.42 336.08 621.67 338.44 620.92 340.82C622.78 337.83 624.81 334.95 627.13 332.24C627.27 332.07 627.56 332.26 627.42 332.44C622.17 339.14 618.54 346.77 615.09 354.5C618.82 350.51 622.22 346.14 625.34 341.68C625.37 341.63 625.44 341.68 625.41 341.73C622.18 346.86 618.46 351.47 614.43 355.97C611.91 361.63 609.44 367.31 606.44 372.69C612.43 367.63 617.04 361.07 621.6 354.75C621.7 354.61 621.92 354.75 621.83 354.9C617.27 361.84 612.54 368.37 605.98 373.51C604.64 375.86 603.2 378.16 601.59 380.36C601.32 380.72 600.78 380.35 601.01 379.96L601.02 379.97Z" fill="#263238"/>
<path d="M597.9 383.11C597.9 383.11 612.59 356.06 608.32 329.84C604.05 303.62 599.48 294.28 599.48 294.28C599.48 294.28 576.39 335.07 597.89 383.11H597.9Z" fill="#403D39"/>
<path d="M591.87 340.59C593.04 348.16 595.1 355.25 597.54 362.43C597.58 352.81 597.76 343.18 598.02 333.56C596.33 327.71 595.48 321.72 595.25 315.64C595.25 315.46 595.51 315.47 595.52 315.64C595.95 320.87 596.87 325.98 598.09 331.06C598.31 323.12 598.58 315.18 598.87 307.25C598.87 307.12 599.08 307.12 599.08 307.25C599.07 319.65 599.08 332.05 599 344.45C600.9 339.67 602.08 334.76 603.23 329.72C603.24 329.67 603.32 329.68 603.32 329.73C602.88 335.52 601.12 341.12 598.98 346.5C598.92 354.43 598.84 362.35 598.66 370.28C601.14 361.85 603.8 353.69 604.52 344.79C604.52 344.67 604.71 344.67 604.71 344.79C604.52 354.61 601.98 364.58 598.74 373.81C598.7 373.91 598.64 373.98 598.58 374.04C598.51 376.94 598.42 379.83 598.33 382.73C598.32 383.15 597.69 383.13 597.69 382.72C597.58 376.79 597.54 370.87 597.55 364.94C594.25 357.32 592.49 348.83 591.76 340.6C591.76 340.53 591.88 340.51 591.89 340.58L591.87 340.59Z" fill="#263238"/>
<path d="M592.88 336.41C593.35 338.73 593.78 341.19 593.91 343.56C593.91 343.64 593.79 343.65 593.77 343.58C593.16 341.29 592.83 338.81 592.56 336.46C592.54 336.28 592.85 336.24 592.88 336.42V336.41Z" fill="#263238"/>
<path d="M601.47 316.64C601.48 316.56 601.61 316.58 601.61 316.66C601.63 318.29 601.3 320.03 600.87 321.59C600.83 321.72 600.65 321.66 600.67 321.53C600.99 319.9 601.19 318.27 601.47 316.64Z" fill="#263238"/>
<path d="M592.54 385.18C592.54 385.18 593.14 356.95 585.04 342.91C576.94 328.88 563.51 321.73 563.51 321.73C563.51 321.73 568.93 371.5 592.54 385.18Z" fill="#403D39"/>
<path d="M577.78 361.04C581.19 365.94 584.57 370.67 588.74 374.93C587.12 369.16 585.25 363.48 583.13 357.9C578.59 353.92 574.09 349.79 571.3 344.35C571.26 344.26 571.38 344.19 571.43 344.27C574.42 349.09 578.43 352.96 582.64 356.67C579.41 348.28 575.64 340.1 571.37 332.12C571.26 331.92 571.56 331.74 571.68 331.94C574.27 336.1 576.63 340.41 578.75 344.83C577.99 341.81 577.38 338.73 576.61 335.73C576.59 335.65 576.71 335.62 576.74 335.69C578.18 339.46 579.61 343.63 580.07 347.66C582.9 353.92 585.29 360.38 587.2 366.98C586.99 362.75 586.73 358.53 586.29 354.31C586.29 354.23 586.42 354.21 586.43 354.29C587.31 358.98 587.77 363.74 587.66 368.51C588.83 372.72 589.81 376.97 590.6 381.26C590.62 381.37 590.45 381.43 590.42 381.31C589.98 379.51 589.5 377.73 589.02 375.95C588.99 375.94 588.96 375.95 588.93 375.91C584.59 371.56 580.46 366.6 577.75 361.05C577.74 361.02 577.78 361 577.79 361.02L577.78 361.04Z" fill="#263238"/>
<path d="M568.4 338.07C569.3 339.04 570.13 340.07 571 341.07C571.77 341.96 572.71 342.79 573.33 343.79C573.35 343.83 573.31 343.88 573.27 343.85C572.23 343.19 571.39 342.12 570.58 341.19C569.72 340.22 568.96 339.26 568.27 338.16C568.22 338.08 568.33 337.99 568.4 338.06V338.07Z" fill="#263238"/>
<path d="M616.61 381.74L615.59 390.79L612.51 418.15H585.68L582.6 390.79L581.58 381.74H616.61Z" fill="#455A64"/>
<path d="M616.61 381.74L615.59 390.79H582.61L581.59 381.74H616.62H616.61Z" fill="#37474F"/>
<path d="M579.19 385.42H618.98V375.17H579.19V385.42Z" fill="#455A64"/>
<path d="M210.241 98.6401L204.48 142.937L265.585 150.884L271.346 106.587L210.241 98.6401Z" fill="#403D39"/>
<path d="M232.43 96.86L210.84 94.05L210.25 98.64L233.08 101.61L232.43 96.86Z" fill="#403D39"/>
<path d="M230.393 98.4179L212.732 96.121L212.385 98.7885L230.046 101.085L230.393 98.4179Z" fill="white"/>
<path d="M265.59 150.88L204.49 142.94L209.45 101.33L270.55 109.28L265.59 150.88Z" fill="#403D39"/>
<path opacity="0.4" d="M265.59 150.88L204.49 142.94L209.45 101.33L270.55 109.28L265.59 150.88Z" fill="white"/>
<path d="M231.54 99.93L209.95 97.12L209.45 101.33L232.28 104.3L231.54 99.93Z" fill="#403D39"/>
<path opacity="0.4" d="M231.54 99.93L209.95 97.12L209.45 101.33L232.28 104.3L231.54 99.93Z" fill="white"/>
<path d="M92.5601 314.61C92.5601 314.61 64.9901 355.33 64.9801 355.36C61.1901 363.78 58.0101 371.24 56.7301 375.24C56.7301 375.26 56.7101 375.28 56.7101 375.31C56.2201 376.82 56.0101 377.83 56.1601 378.19C56.1701 378.22 56.1701 378.25 56.1901 378.27C57.9301 381.1 124.36 413.38 127.06 413.73C129.76 414.09 130.95 406.42 129.38 403.11C127.78 399.79 107.89 376.06 107.89 376.06L131.08 334.13L92.5801 314.62L92.5601 314.61Z" fill="#AD6359"/>
<path d="M125.98 413.49C123.29 413.14 57.91 381.1 56.18 378.28C56.16 378.25 56.16 378.23 56.15 378.2C56 377.84 56.22 376.82 56.7 375.32C56.7 375.29 56.71 375.28 56.73 375.26C58.01 371.25 61.19 363.8 64.98 355.37C64.98 355.36 68.96 348.07 70.55 345.54L112.8 367.38L107.88 376.07C107.88 376.07 126.72 399.56 128.31 402.87C129.9 406.18 128.7 413.85 126 413.5L125.98 413.49Z" fill="#EBEBEB"/>
<path d="M127.2 412.58C124.49 412.17 58.3 378.07 56.61 375.17C55.95 374.08 60.35 364.15 66.02 352.3L66.2 351.93L109.15 373.45L108.76 374.17C108.76 374.17 128.26 398.55 129.78 401.94C131.29 405.31 129.91 413.01 127.2 412.59V412.58Z" fill="#403D39"/>
<path d="M127.77 409.63C116.75 403.61 71.75 380.36 60.41 375.24C60.32 375.2 60.29 375.26 60.37 375.31C71.16 381.52 116.35 404.4 127.68 409.81C127.92 409.92 128.01 409.75 127.77 409.63Z" fill="white"/>
<path d="M112.28 376.15C108.31 373.07 102.59 370.98 97.63 372.38C97.44 372.43 97.52 372.71 97.68 372.74C102.72 373.61 107.21 374.81 111.98 376.7C112.32 376.83 112.57 376.38 112.28 376.15Z" fill="#263238"/>
<path d="M114.46 379.69C110.49 376.61 104.77 374.52 99.81 375.92C99.62 375.97 99.7 376.25 99.86 376.28C104.9 377.15 109.39 378.35 114.16 380.24C114.5 380.37 114.75 379.92 114.46 379.69Z" fill="#263238"/>
<path d="M116.65 383.23C112.68 380.15 106.96 378.06 102 379.46C101.81 379.51 101.89 379.79 102.05 379.81C107.09 380.68 111.58 381.88 116.35 383.77C116.69 383.9 116.94 383.45 116.65 383.22V383.23Z" fill="#263238"/>
<path d="M73.3099 364.97C69.7499 360.1 62.1699 365.63 65.7399 370.51C69.2999 375.38 76.8799 369.85 73.3099 364.97Z" fill="white"/>
<path opacity="0.1" d="M111.67 377.83L116.43 407.55C122.42 410.53 126.56 412.49 127.2 412.59C129.91 413.01 131.3 405.31 129.79 401.94C128.63 399.38 117.17 384.77 111.67 377.83Z" fill="black"/>
<path d="M129.43 410.73C130.38 411.8 128.07 415.64 127.05 415.52C126.03 415.4 54.03 377.9 52.94 376.99C51.85 376.08 54.57 371.91 56.11 372.42C57.65 372.93 129.42 410.72 129.42 410.72L129.43 410.73Z" fill="#263238"/>
<path d="M70.4399 341.62L118.05 367.04C118.05 367.04 178.14 286.68 179.34 264.18C181 233.11 154.47 134.46 154.47 134.46L112.15 134.17C112.15 134.17 129.35 235.62 127.95 252.93C127.22 261.99 70.4399 341.62 70.4399 341.62Z" fill="#37474F"/>
<path d="M122.2 357.2C119.75 355.43 97.18 342.36 80 334.01C79.88 333.95 79.81 334.12 79.91 334.18C85.12 337.62 118.8 356.07 122.07 357.38C122.18 357.42 122.31 357.28 122.2 357.2Z" fill="#263238"/>
<path d="M133.83 231.26C131.86 216.42 129.7 201.59 127.23 186.82C124.75 171.98 122.14 157.15 119.04 142.43C118.66 140.63 118.26 138.84 117.87 137.04C117.81 136.76 117.39 136.84 117.44 137.12C120.05 151.72 122.73 166.32 125.13 180.96C127.53 195.6 129.77 210.27 131.78 224.97C132.28 228.61 132.76 232.25 133.23 235.89C133.72 239.65 134.27 243.43 134.31 247.23C134.35 250.88 133.78 254.43 132.5 257.85C131.24 261.21 129.44 264.32 127.62 267.4C119.96 280.35 85.68 331.68 84.79 333.33C84.73 333.44 84.88 333.55 84.95 333.44C93.18 320.67 118.7 285.17 126.47 272C129.97 266.06 133.99 260.05 135.13 253.12C136.32 245.92 134.78 238.39 133.84 231.24L133.83 231.26Z" fill="#263238"/>
<path d="M122.39 342.4C122.39 342.4 121.91 390.68 121.91 390.72C122.17 399.95 122.55 408.05 123.15 412.21C123.15 412.23 123.15 412.25 123.16 412.28C123.38 413.85 123.63 414.85 123.92 415.11C123.94 415.13 123.95 415.16 123.98 415.17C126.78 416.96 200.64 417.07 203.22 416.2C205.81 415.35 203.54 407.92 200.68 405.63C197.79 403.34 169.55 390.65 169.55 390.65L169.57 342.4H122.41H122.39Z" fill="#AD6359"/>
<path d="M122.01 380.81C122.01 380.81 121.91 390.69 121.91 390.72C122.17 399.95 122.55 408.05 123.15 412.21C123.15 412.23 123.15 412.25 123.16 412.28C123.47 413.83 123.74 414.85 123.92 415.11C123.94 415.13 123.95 415.16 123.98 415.17C126.78 416.96 200.64 417.07 203.22 416.2C205.81 415.35 203.54 407.92 200.68 405.63C197.79 403.34 169.55 390.65 169.55 390.65V380.59L122.03 380.81H122.01Z" fill="#EBEBEB"/>
<path d="M203.25 416.11C200.63 416.94 126.19 415.63 123.39 413.78C122.31 413.1 121.87 402.24 121.72 389.1C121.72 388.96 121.72 388.83 121.72 388.69L169.76 389L169.73 389.82C169.73 389.82 198 403.07 200.87 405.43C203.71 407.78 205.88 415.3 203.26 416.12L203.25 416.11Z" fill="#403D39"/>
<path d="M202.46 413.21C189.92 412.68 139.27 411.73 126.84 412.16C126.74 412.16 126.74 412.23 126.84 412.24C139.26 413.04 189.91 413.57 202.46 413.41C202.72 413.41 202.73 413.22 202.46 413.2V413.21Z" fill="white"/>
<path d="M173.75 390.03C168.83 389.02 162.78 389.67 158.94 393.13C158.79 393.26 158.98 393.47 159.14 393.43C164.04 391.98 168.61 391.07 173.72 390.66C174.08 390.63 174.1 390.11 173.75 390.04V390.03Z" fill="#263238"/>
<path d="M177.28 392.24C172.36 391.23 166.31 391.88 162.47 395.34C162.32 395.47 162.51 395.68 162.67 395.64C167.57 394.19 172.14 393.28 177.25 392.87C177.61 392.84 177.63 392.32 177.28 392.25V392.24Z" fill="#263238"/>
<path d="M180.8 394.45C175.88 393.44 169.82 394.09 165.99 397.55C165.84 397.68 166.03 397.89 166.19 397.85C171.09 396.4 175.66 395.49 180.76 395.08C181.12 395.05 181.14 394.53 180.79 394.46L180.8 394.45Z" fill="#263238"/>
<path d="M204.43 413.47C205.75 414.01 205.39 418.48 204.42 418.82C203.45 419.16 122.29 417.38 120.92 417.04C119.55 416.71 120.14 411.77 121.75 411.54C123.36 411.31 204.44 413.47 204.44 413.47H204.43Z" fill="#263238"/>
<path d="M133.86 397.25C128.51 394.46 124.16 402.77 129.52 405.56C134.87 408.35 139.22 400.04 133.86 397.25Z" fill="white"/>
<path d="M154.69 135.15C154.69 135.15 154.69 135.16 154.67 135.19C154.39 136.06 139.18 177.74 137.75 178.4C136.13 179.15 171.35 238.31 173.43 265.79C174.76 283.37 172.15 377.57 172.15 377.57H120.66C120.66 377.57 123.13 293.41 124.31 265.07C124.77 254.08 88.9599 199.37 88.5199 165.3C88.3799 154.56 96.0999 134.94 96.0999 134.94L154.69 135.13V135.15Z" fill="#37474F"/>
<path d="M124.61 264.31C124.61 263.86 124.25 263.71 124.22 264.17C123.06 279.51 122.79 289.48 122.05 304.85C121.32 320.17 121.74 323.86 121.05 339.18C120.66 347.85 121.03 356.54 120.83 365.21C120.83 365.34 121.03 365.36 121.04 365.23C122.64 349.94 124.6 273 124.61 264.31Z" fill="#263238"/>
<path d="M173.43 266.4C173.32 262.62 173.07 258.83 172.39 255.11C171.73 251.47 170.57 247.94 169.21 244.51C166.36 237.34 163 230.34 159.79 223.33C156.53 216.22 153.21 209.15 149.78 202.13C147.85 198.18 145.91 194.24 143.95 190.31C141.97 186.33 139.84 182.42 137.77 178.49C137.69 178.33 137.45 178.45 137.52 178.61C140.82 185.7 144.08 192.8 147.38 199.89C150.68 206.98 153.92 214.09 157.16 221.2C160.35 228.2 163.54 235.2 166.55 242.27C167.99 245.66 169.34 249.1 170.22 252.69C171.13 256.36 171.51 260.13 171.73 263.91C172.23 272.71 172.47 281.53 173.34 290.3C173.35 290.41 173.53 290.4 173.53 290.29C173.79 282.35 173.67 274.36 173.43 266.41V266.4Z" fill="#263238"/>
<path d="M168.42 367.4C165.42 367.01 142.61 366.22 123.53 367.04C123.4 367.04 123.41 367.22 123.53 367.24C129.75 367.79 164.9 368.03 168.39 367.63C168.51 367.62 168.55 367.43 168.41 367.41L168.42 367.4Z" fill="#263238"/>
<path d="M144.87 176.09C139.36 177.38 133.96 179.45 128.77 181.67C128.57 181.76 128.66 182.07 128.88 182C134.28 180.31 139.78 178.72 145.09 176.73C145.51 176.57 145.3 175.99 144.87 176.08V176.09Z" fill="#263238"/>
<path d="M150.06 140.79C150.06 140.61 149.75 140.54 149.74 140.73C149.15 146.88 148.21 152.25 147.1 157.94C146.59 160.58 142.93 175.1 138.42 173.55C137.66 173.29 137.35 172.49 137.35 171.31C137.35 169.89 138.05 168.22 138.43 166.85C139.26 163.82 139.99 160.77 140.57 157.68C141.66 151.91 142.28 146.1 142.17 140.23C142.17 140.04 141.89 140.02 141.87 140.22C141.05 148.27 140.02 156.29 138 164.14C137.03 167.91 134.51 173.49 138.46 174.49C142.48 175.51 146.11 166.11 146.88 163.52C149.03 156.28 149.9 148.32 150.08 140.8L150.06 140.79Z" fill="#263238"/>
<path d="M138.5 173.96C137.98 174.91 137.54 175.9 137.15 176.91C136.85 177.69 136.45 178.53 136.46 179.38C136.46 179.54 136.67 179.58 136.77 179.48C137.38 178.85 137.71 177.93 138.09 177.15C138.54 176.24 139.01 175.34 139.43 174.42C139.71 173.81 138.82 173.38 138.5 173.97V173.96Z" fill="#263238"/>
<path d="M129.88 279.45C130.14 272.13 130.96 264.45 128.56 257.39C127.37 253.89 125.56 250.64 123.86 247.37C122.07 243.93 120.32 240.47 118.6 236.99C111.72 223.09 105.24 208.98 99.4499 194.59C96.6599 187.66 94.1699 180.55 93.1699 173.12C92.1299 165.34 92.8699 157.39 94.6099 149.76C95.0399 147.85 95.5099 145.96 96.0299 144.08C96.0699 143.94 95.8599 143.86 95.8199 144C93.4999 151.22 91.9099 158.73 91.7999 166.34C91.6999 173.67 93.3099 180.79 95.6799 187.69C98.1499 194.88 101.24 201.86 104.28 208.82C107.42 215.99 110.67 223.11 114.06 230.17C117.43 237.19 121.02 244.1 124.58 251.02C126.3 254.37 127.87 257.81 128.53 261.54C129.21 265.34 129.1 269.22 128.95 273.06C128.34 289.26 126.95 337.88 126.74 354.03C126.71 356.08 126.69 358.13 126.67 360.18C126.67 360.36 126.94 360.39 126.95 360.2C127.97 344.09 129.29 295.59 129.87 279.44L129.88 279.45Z" fill="#263238"/>
<path d="M118.33 145.64C118.33 145.52 118.15 145.55 118.14 145.65C117.53 150.11 117.19 154.73 115.03 158.77C113.06 162.48 109.61 164.87 105.86 166.55C103.69 167.52 101.43 168.28 99.1799 169.02C99.0199 169.07 99.0499 169.33 99.2299 169.29C103.49 168.41 107.82 167.41 111.52 165.02C115.48 162.46 117.52 158.36 118.17 153.77C118.55 151.07 118.51 148.35 118.33 145.64Z" fill="#263238"/>
<path d="M91.77 142.42C91.89 142.61 160.48 155.22 161.16 154.64C161.41 154.43 161.98 149.37 161.98 149.37C161.98 149.37 164.69 144.88 163.6 136.47C161.31 118.7 157.81 74.51 154.89 70.47C152.33 66.94 144.49 64.33 139.09 66.54C127.77 71.18 100.32 115.95 94.73 125.85C91.97 130.73 93.22 134.57 93.48 137.08C93.48 137.08 91.61 142.18 91.77 142.42Z" fill="#403D39"/>
<path d="M158.37 148.7C156.35 148.26 154.28 148.02 152.24 147.66C150.29 147.31 148.36 146.88 146.41 146.55C142.41 145.86 138.41 145.21 134.42 144.53C126.43 143.16 118.45 141.72 110.46 140.3C108.23 139.9 106 139.5 103.78 139.1C101.46 138.68 99.11 138.4 96.79 137.99C96.68 137.97 96.64 138.13 96.75 138.16C98.78 138.6 100.78 139.17 102.81 139.58C104.75 139.97 106.69 140.36 108.63 140.75C112.61 141.54 116.59 142.28 120.58 143.01C128.56 144.46 136.55 145.84 144.56 147.09C146.8 147.44 149.05 147.72 151.3 147.99C153.64 148.27 155.97 148.74 158.31 148.95C158.47 148.96 158.53 148.75 158.36 148.71L158.37 148.7Z" fill="#263238"/>
<path d="M149.19 82.26C145.37 81.86 140.58 73.64 139.71 68.44C139.65 68.08 141.21 65.09 142.94 61.35C143.98 59.08 145.08 56.53 145.92 54.13L159.7 63.04C159.7 63.04 156.47 67.55 155.03 71.75C154.91 72.1 154.84 72.44 154.79 72.77C154.78 72.82 154.77 72.88 154.76 72.94C154.41 74.92 152.9 82.64 149.2 82.26H149.19Z" fill="#AD6359"/>
<path d="M154.77 72.77C154.77 72.77 154.75 72.87 154.74 72.93C154.24 72.84 153.72 72.68 153.16 72.48C144.52 69.24 146.19 57.87 146.83 54.73L150.27 56.95L159.67 63.03C159.67 63.03 156.43 67.54 155.01 71.74C154.89 72.09 154.81 72.42 154.76 72.76L154.77 72.77Z" fill="#263238"/>
<path d="M147.74 37.45C145.04 42.71 145.09 59.31 148.41 63.6C153.21 69.83 162.52 72.01 168.17 65.91C173.65 59.99 173.2 38.36 169.36 34.31C163.71 28.34 151.72 29.68 147.74 37.45Z" fill="#AD6359"/>
<path d="M161.69 50.72C161.69 50.72 161.6 50.77 161.6 50.82C161.63 51.94 161.48 53.22 160.47 53.59C160.44 53.6 160.44 53.66 160.47 53.65C161.7 53.48 161.89 51.77 161.68 50.71L161.69 50.72Z" fill="#263238"/>
<path d="M160.7 49.55C158.9 49.41 158.75 53.02 160.42 53.15C162.06 53.28 162.21 49.67 160.7 49.55Z" fill="#263238"/>
<path d="M168.04 50.77C168.04 50.77 168.13 50.83 168.12 50.87C168.04 51.99 168.13 53.28 169.13 53.69C169.16 53.7 169.16 53.76 169.12 53.75C167.89 53.53 167.78 51.81 168.04 50.77Z" fill="#263238"/>
<path d="M169.09 49.65C170.89 49.59 170.89 53.2 169.22 53.25C167.58 53.31 167.58 49.7 169.09 49.65Z" fill="#263238"/>
<path d="M159.44 47.39C159.95 47.35 160.4 47.22 160.9 47.13C161.46 47.02 161.91 47 162.34 46.58C162.57 46.36 162.56 45.89 162.37 45.65C161.91 45.09 161.2 45.05 160.52 45.15C159.78 45.26 159.25 45.53 158.75 46.08C158.27 46.61 158.79 47.45 159.45 47.39H159.44Z" fill="#263238"/>
<path d="M170.69 47.23C170.19 47.13 169.75 46.95 169.27 46.8C168.73 46.63 168.28 46.55 167.91 46.09C167.71 45.84 167.77 45.38 167.99 45.16C168.51 44.66 169.23 44.7 169.89 44.88C170.61 45.07 171.11 45.41 171.54 46.01C171.96 46.59 171.34 47.37 170.69 47.23Z" fill="#263238"/>
<path d="M159.82 60.61C160.08 60.88 160.33 61.25 160.73 61.3C161.12 61.35 161.58 61.19 161.94 61.07C161.98 61.06 162.01 61.1 161.99 61.13C161.68 61.55 161.06 61.79 160.55 61.68C160.05 61.57 159.82 61.12 159.71 60.66C159.7 60.59 159.78 60.57 159.82 60.61Z" fill="#263238"/>
<path d="M161.13 57.31C161.72 58.31 162.61 58.87 163.6 59.11C164.04 59.22 164.51 59.25 164.97 59.23C165.06 59.23 165.15 59.23 165.23 59.21C165.31 59.21 165.39 59.2 165.48 59.18C165.61 59.17 165.69 59.06 165.71 58.94C165.71 58.94 165.71 58.86 165.71 58.82V58.71C165.77 57.85 165.74 56.54 165.74 56.54C166.05 56.71 167.62 57.5 167.61 57.05C167.54 53.32 167.46 49.17 166.6 45.48C166.58 45.36 166.39 45.38 166.39 45.5C166.32 49.09 166.87 52.66 166.86 56.27C166.36 56.05 165.54 55.66 165.09 55.65C164.97 55.68 165.19 58.18 165.14 58.57C165.14 58.57 165.14 58.59 165.14 58.61C163.69 58.74 162.62 58.25 161.25 57.23C161.17 57.16 161.08 57.23 161.14 57.33L161.13 57.31Z" fill="#263238"/>
<path opacity="0.2" d="M145.68 49.17C146.81 49 149.52 45.22 150.67 43.72C151.88 42.16 152.54 34.13 152.65 32.3C150.68 33.42 149.01 35.02 147.9 37.1C146.6 39.5 145.84 44.25 145.68 49.18V49.17Z" fill="#263238"/>
<path d="M166.53 39.07C165.16 40.53 163.14 41.23 161.17 40.83C159.25 40.44 157.38 39.03 156.76 37.13C156.74 37.07 156.65 37.1 156.67 37.16C157.33 39.19 158.9 40.91 161.07 41.29C163.11 41.65 165.35 40.79 166.64 39.17C166.7 39.1 166.6 39.01 166.53 39.07Z" fill="#263238"/>
<path d="M161.09 24.54C157.73 24.48 154.58 26.22 153.26 28.46C152.46 29.82 152.29 31.23 152.46 32.67C152.46 32.73 152.59 32.72 152.58 32.67C152.48 30.39 153.7 27.85 156.19 26.35C158.59 24.92 161.71 24.57 164.36 25.69C165.74 26.28 166.84 27.21 167.39 28.32C167.45 28.44 167.71 28.37 167.66 28.25C166.83 26.12 164.12 24.6 161.08 24.55L161.09 24.54Z" fill="#263238"/>
<path d="M180.29 32.57C179.82 30.9 178.73 29.44 177.29 28.47C175.28 27.12 172.95 27.21 170.63 27.36C170.57 27.36 170.57 27.46 170.63 27.46C172.6 27.34 174.61 27.34 176.39 28.33C177.83 29.14 179.02 30.45 179.62 32C180.86 35.22 179.42 39.11 176.34 40.69C174.6 41.59 172.48 41.72 170.64 41.05C170.57 41.02 170.51 41.13 170.58 41.16C173.94 42.49 178.01 41.09 179.68 37.85C180.51 36.25 180.77 34.32 180.29 32.57Z" fill="#263238"/>
<path d="M146.66 40.38C146.66 40.38 143.73 34.24 146.54 30.88C148.13 28.98 153.13 29.45 153.13 29.45C153.13 29.45 154.87 26.64 159.06 25.87C163.29 25.09 168.17 27.76 168.17 27.76C168.17 27.76 172.25 25.65 175.88 27.95C180.95 31.15 179.96 39.04 174.61 41.35C170.86 42.98 166.01 39.51 166.01 39.51C165.53 39.55 160.49 42.3 156.96 37.76C156.96 37.76 153.82 40.31 151.2 38.31C151.2 38.31 149.71 40.97 146.65 40.38H146.66Z" fill="#263238"/>
<path d="M148.82 51.16C148.82 51.16 146 45.37 143.43 46.29C140.86 47.21 142.4 55.21 145.01 56.69C147.62 58.17 149.04 55.77 149.04 55.77L148.82 51.16Z" fill="#AD6359"/>
<path d="M143.93 48.57C143.93 48.57 143.87 48.62 143.9 48.64C145.72 49.74 146.46 51.71 146.88 53.7C146.42 52.89 145.69 52.37 144.61 52.9C144.55 52.93 144.59 53.02 144.65 53.01C145.48 52.97 146.03 53.2 146.47 53.92C146.78 54.43 146.95 55.05 147.14 55.61C147.2 55.8 147.53 55.76 147.5 55.54V55.49C147.94 53.01 146.56 49.23 143.93 48.56V48.57Z" fill="#263238"/>
<path d="M132.22 84.01C132.06 103.45 136.49 134.04 141.61 137.47C154.44 146.08 176.32 150.58 185.58 150.95C190.98 151.17 193.53 122.7 188.74 122.27C181.18 121.59 159.72 116.81 157.04 116.06C155.61 115.66 148.85 95.96 143.26 83.52C137.19 69.99 132.29 74.53 132.21 84.01H132.22Z" fill="#AD6359"/>
<path d="M182 123.94C182 123.94 190.79 116.87 196.56 114.58C204.29 111.52 212.22 112.06 215.53 112.48C222.44 113.37 238.53 120.29 237.34 125.28C236.27 129.79 220.18 121.88 220.18 121.88C220.18 121.88 237.92 127.24 235.62 132.43C233.33 137.62 215.17 127.38 215.17 127.38C215.17 127.38 233.27 133.29 230.06 138.27C227.63 142.03 210.67 133.68 210.67 133.68C210.67 133.68 226.19 138.87 223.86 142.85C221.29 147.25 205.14 140.52 205.14 140.52C197.52 149.64 189.98 150.69 184.64 150.94C183.35 151 181.99 123.94 181.99 123.94H182Z" fill="#AD6359"/>
<path d="M214.17 119.63C216.28 120.18 218.41 120.73 220.46 121.47C222.51 122.21 224.54 123.02 226.51 123.95C231.35 126.22 234.02 128.4 233.84 128.29C229.59 125.53 222.29 122.77 220.24 122.03C218.19 121.29 216.19 120.45 214.14 119.71C214.09 119.69 214.12 119.62 214.17 119.63Z" fill="#263238"/>
<path d="M211.36 126.98C214.02 127.8 216.69 128.52 219.31 129.47C221.92 130.41 224.31 131.52 226.85 132.64C227.05 132.73 226.94 132.8 226.74 132.72C224.16 131.71 221.69 130.97 219.1 129.99C216.52 129.01 213.95 127.93 211.33 127.04C211.29 127.03 211.31 126.97 211.35 126.98H211.36Z" fill="#263238"/>
<path d="M207.82 132.86C211.95 133.91 215.88 135.72 219.69 137.59C219.88 137.68 219.73 137.77 219.53 137.68C215.61 136.03 212.55 134.71 207.79 133C207.72 132.97 207.74 132.83 207.83 132.86H207.82Z" fill="#263238"/>
<path d="M180.8 154.97L185.54 120.02L158.05 115.08C154.03 104.6 145.98 83.66 142.11 76.83C137.57 68.82 131.71 71.45 131.03 80.8C129.47 102.19 135.12 136.48 138.36 140.75C143 146.88 180.8 154.96 180.8 154.96V154.97Z" fill="#403D39"/>
<path d="M175.68 149.87C175.57 147.66 176.64 138.59 176.93 136.34C177.21 134.13 178.69 125.08 179 122.76C179.02 122.63 179.2 122.62 179.19 122.75C178.93 125.05 178.16 134.18 177.89 136.44C177.62 138.7 176.45 147.73 175.81 149.88C175.79 149.95 175.69 149.94 175.69 149.88L175.68 149.87Z" fill="#263238"/>
<path d="M159.72 150.12C156.76 149.27 153.82 148.34 150.91 147.32C146.62 145.66 141.96 144.37 138.44 141.23C135.76 137.33 135.26 132.47 134.29 127.97C133.19 121.89 132.53 115.75 131.93 109.62C131.38 103.48 130.98 97.33 130.77 91.17C131.9 103.43 133 115.71 134.97 127.85C135.89 132.24 136.34 137.11 138.78 140.92C142.16 143.97 146.81 145.39 150.97 147.12C153.85 148.2 156.77 149.2 159.71 150.12H159.72Z" fill="#263238"/>
<path d="M131.08 96.44C130.6 95.38 130.19 94.24 130.23 93.06C130.52 94.17 130.92 95.29 131.08 96.44Z" fill="#263238"/>
<path d="M148.03 90.26C151.55 97.8 154.28 106.54 157.7 113.98C162.47 115.24 167.38 116.05 172.21 117.12C176.66 118.04 181.12 118.97 185.56 119.93V119.96L185.41 120.9L185.48 119.95L185.51 119.99C176.55 118.49 167.63 116.92 158.74 114.99C158.3 114.85 157.55 114.8 157.18 114.48C156.2 112.91 155.68 111.15 154.98 109.45C152.69 103.56 150.22 96.14 148.03 90.25V90.26Z" fill="#263238"/>
<path d="M149.21 91.04C149.59 92.23 149.88 93.49 149.72 94.75C149.55 93.53 149.25 92.28 149.21 91.04Z" fill="#263238"/>
</g>
<defs>
<clipPath id="clip0_216_2">
<rect width="646.53" height="418.86" fill="white"/>
</clipPath>
</defs>
</svg>
