<svg width="877" height="300" viewBox="0 0 877 300" fill="none" xmlns="http://www.w3.org/2000/svg">
<path d="M159.731 0.602089C137.085 2.62737 117.07 14.2463 98.7339 35.7784C93.1823 42.2805 86.8269 51.6614 83.2477 58.3769L81.3482 62.1072L73.8242 58.6967C69.6604 56.8843 66.1538 55.6051 66.0077 55.8186C65.6425 56.2447 78.353 143.013 79.595 148.876C80.1062 151.115 80.6179 150.581 87.1189 141.947C90.9179 136.724 99.0993 125.852 105.308 117.643C120.722 97.1772 128.976 85.9847 129.269 85.1317C129.342 84.7056 126.347 83.0003 122.475 81.2943C118.676 79.589 115.536 77.8838 115.536 77.3505C115.536 75.9651 126.785 59.3362 131.022 54.6458C139.788 44.7324 152.499 36.6315 164.187 33.3265C172.514 31.088 186.248 30.9817 194.502 33.3265C225.037 41.748 250.459 74.4724 260.759 118.709C262.512 126.278 264.557 140.242 264.557 144.719C264.557 146.424 264.923 148.236 265.287 148.556C266.237 149.408 266.237 146.211 265.287 131.501C264.046 112.207 260.978 96.0044 255.572 80.3349C242.423 41.8544 218.025 14.0331 188.804 4.11973C183.106 2.20102 167.401 -0.463833 164.479 0.0690885C163.895 0.175737 161.776 0.388872 159.731 0.602089Z" fill="#FF6E04"/>
<path d="M170.785 169.637C162.53 180.569 151.499 195.216 146.167 202.116C140.834 209.121 136.524 215.171 136.524 215.489C136.524 215.914 139.665 217.612 143.464 219.31C147.263 221.008 150.404 222.813 150.404 223.237C150.404 223.768 147.189 228.863 143.318 234.595C132.58 250.197 121.987 259.219 107.523 265.163C100.875 267.816 99.3414 268.028 86.4844 268.028C73.5545 268.028 72.0939 267.816 65.3731 265.056C52.7352 259.961 41.1203 251.046 31.4047 238.84C20.8124 225.679 12.4116 208.59 7.22503 189.697C4.22995 179.083 1.38099 162.738 1.38099 156.794C1.38099 154.671 1.01572 152.654 0.504387 152.23C-0.591368 151.275 0.212204 169.53 1.81929 183.117C6.85976 225.36 26.9486 264.207 53.9772 283.949C66.1034 292.758 77.2072 297.323 92.1823 299.445C113.148 302.418 137.912 293.289 156.686 275.776C166.11 266.967 177.067 252.638 182.619 242.024L184.518 238.416L191.385 241.387C195.183 243.085 198.69 244.677 199.274 244.996C200.516 245.633 200.516 245.314 196.425 218.674C194.818 207.847 191.823 188.105 189.851 174.732C187.806 161.358 186.052 150.213 185.979 150.001C185.833 149.895 178.966 158.704 170.785 169.637Z" fill="white"/>
<path d="M352.068 199.25V129.432H379.614C384.909 129.432 389.42 130.443 393.148 132.466C396.875 134.466 399.716 137.25 401.67 140.818C403.648 144.364 404.636 148.455 404.636 153.091C404.636 157.727 403.636 161.818 401.636 165.364C399.636 168.909 396.739 171.67 392.943 173.648C389.17 175.625 384.602 176.614 379.239 176.614H361.682V164.784H376.852C379.693 164.784 382.034 164.295 383.875 163.318C385.739 162.318 387.125 160.943 388.034 159.193C388.966 157.42 389.432 155.386 389.432 153.091C389.432 150.773 388.966 148.75 388.034 147.023C387.125 145.273 385.739 143.92 383.875 142.966C382.011 141.989 379.648 141.5 376.784 141.5H366.83V199.25H352.068ZM436.972 200.273C431.585 200.273 426.949 199.182 423.062 197C419.199 194.795 416.222 191.682 414.131 187.659C412.04 183.614 410.994 178.83 410.994 173.307C410.994 167.92 412.04 163.193 414.131 159.125C416.222 155.057 419.165 151.886 422.96 149.614C426.778 147.341 431.256 146.205 436.392 146.205C439.847 146.205 443.063 146.761 446.04 147.875C449.04 148.966 451.653 150.614 453.881 152.818C456.131 155.023 457.881 157.795 459.131 161.136C460.381 164.455 461.006 168.341 461.006 172.795V176.784H416.79V167.784H447.335C447.335 165.693 446.881 163.841 445.972 162.227C445.063 160.614 443.801 159.352 442.188 158.443C440.597 157.511 438.744 157.045 436.631 157.045C434.426 157.045 432.472 157.557 430.767 158.58C429.085 159.58 427.767 160.932 426.812 162.636C425.858 164.318 425.369 166.193 425.347 168.261V176.818C425.347 179.409 425.824 181.648 426.778 183.534C427.756 185.42 429.131 186.875 430.903 187.898C432.676 188.92 434.778 189.432 437.21 189.432C438.824 189.432 440.301 189.205 441.642 188.75C442.983 188.295 444.131 187.614 445.085 186.705C446.04 185.795 446.767 184.682 447.267 183.364L460.699 184.25C460.017 187.477 458.619 190.295 456.506 192.705C454.415 195.091 451.71 196.955 448.392 198.295C445.097 199.614 441.29 200.273 436.972 200.273ZM485.006 168.977V199.25H470.483V146.886H484.324V156.125H484.938C486.097 153.08 488.04 150.67 490.767 148.898C493.494 147.102 496.801 146.205 500.688 146.205C504.324 146.205 507.494 147 510.199 148.591C512.903 150.182 515.006 152.455 516.506 155.409C518.006 158.341 518.756 161.841 518.756 165.909V199.25H504.233V168.5C504.256 165.295 503.438 162.795 501.778 161C500.119 159.182 497.835 158.273 494.926 158.273C492.972 158.273 491.244 158.693 489.744 159.534C488.267 160.375 487.108 161.602 486.267 163.216C485.449 164.807 485.028 166.727 485.006 168.977ZM553.793 219.977C549.088 219.977 545.054 219.33 541.69 218.034C538.349 216.761 535.69 215.023 533.713 212.818C531.736 210.614 530.452 208.136 529.861 205.386L543.293 203.58C543.702 204.625 544.349 205.602 545.236 206.511C546.122 207.42 547.293 208.148 548.747 208.693C550.224 209.261 552.02 209.545 554.134 209.545C557.293 209.545 559.895 208.773 561.94 207.227C564.009 205.705 565.043 203.148 565.043 199.557V189.977H564.429C563.793 191.432 562.838 192.807 561.565 194.102C560.293 195.398 558.656 196.455 556.656 197.273C554.656 198.091 552.27 198.5 549.497 198.5C545.565 198.5 541.986 197.591 538.759 195.773C535.554 193.932 532.997 191.125 531.088 187.352C529.202 183.557 528.259 178.761 528.259 172.966C528.259 167.034 529.224 162.08 531.156 158.102C533.088 154.125 535.656 151.148 538.861 149.17C542.088 147.193 545.622 146.205 549.463 146.205C552.395 146.205 554.849 146.705 556.827 147.705C558.804 148.682 560.395 149.909 561.599 151.386C562.827 152.841 563.77 154.273 564.429 155.682H564.974V146.886H579.395V199.761C579.395 204.216 578.304 207.943 576.122 210.943C573.94 213.943 570.918 216.193 567.054 217.693C563.213 219.216 558.793 219.977 553.793 219.977ZM554.099 187.591C556.44 187.591 558.418 187.011 560.031 185.852C561.668 184.67 562.918 182.989 563.781 180.807C564.668 178.602 565.111 175.966 565.111 172.898C565.111 169.83 564.679 167.17 563.815 164.92C562.952 162.648 561.702 160.886 560.065 159.636C558.429 158.386 556.44 157.761 554.099 157.761C551.713 157.761 549.702 158.409 548.065 159.705C546.429 160.977 545.19 162.75 544.349 165.023C543.509 167.295 543.088 169.92 543.088 172.898C543.088 175.92 543.509 178.534 544.349 180.739C545.213 182.92 546.452 184.614 548.065 185.818C549.702 187 551.713 187.591 554.099 187.591ZM605.884 200.239C602.543 200.239 599.565 199.659 596.952 198.5C594.338 197.318 592.27 195.58 590.747 193.284C589.247 190.966 588.497 188.08 588.497 184.625C588.497 181.716 589.031 179.273 590.099 177.295C591.168 175.318 592.622 173.727 594.463 172.523C596.304 171.318 598.395 170.409 600.736 169.795C603.099 169.182 605.577 168.75 608.168 168.5C611.213 168.182 613.668 167.886 615.531 167.614C617.395 167.318 618.747 166.886 619.588 166.318C620.429 165.75 620.849 164.909 620.849 163.795V163.591C620.849 161.432 620.168 159.761 618.804 158.58C617.463 157.398 615.554 156.807 613.077 156.807C610.463 156.807 608.384 157.386 606.838 158.545C605.293 159.682 604.27 161.114 603.77 162.841L590.338 161.75C591.02 158.568 592.361 155.818 594.361 153.5C596.361 151.159 598.94 149.364 602.099 148.114C605.281 146.841 608.963 146.205 613.145 146.205C616.054 146.205 618.838 146.545 621.497 147.227C624.179 147.909 626.554 148.966 628.622 150.398C630.713 151.83 632.361 153.67 633.565 155.92C634.77 158.148 635.372 160.818 635.372 163.932V199.25H621.599V191.989H621.19C620.349 193.625 619.224 195.068 617.815 196.318C616.406 197.545 614.713 198.511 612.736 199.216C610.759 199.898 608.474 200.239 605.884 200.239ZM610.043 190.216C612.179 190.216 614.065 189.795 615.702 188.955C617.338 188.091 618.622 186.932 619.554 185.477C620.486 184.023 620.952 182.375 620.952 180.534V174.977C620.497 175.273 619.872 175.545 619.077 175.795C618.304 176.023 617.429 176.239 616.452 176.443C615.474 176.625 614.497 176.795 613.52 176.955C612.543 177.091 611.656 177.216 610.861 177.33C609.156 177.58 607.668 177.977 606.395 178.523C605.122 179.068 604.134 179.807 603.429 180.739C602.724 181.648 602.372 182.784 602.372 184.148C602.372 186.125 603.088 187.636 604.52 188.682C605.974 189.705 607.815 190.216 610.043 190.216ZM665.935 200.102C661.957 200.102 658.355 199.08 655.128 197.034C651.923 194.966 649.378 191.932 647.491 187.932C645.628 183.909 644.696 178.977 644.696 173.136C644.696 167.136 645.662 162.148 647.594 158.17C649.526 154.17 652.094 151.182 655.298 149.205C658.526 147.205 662.06 146.205 665.901 146.205C668.832 146.205 671.276 146.705 673.23 147.705C675.207 148.682 676.798 149.909 678.003 151.386C679.23 152.841 680.162 154.273 680.798 155.682H681.241V129.432H695.73V199.25H681.412V190.864H680.798C680.116 192.318 679.151 193.761 677.901 195.193C676.673 196.602 675.071 197.773 673.094 198.705C671.139 199.636 668.753 200.102 665.935 200.102ZM670.537 188.545C672.878 188.545 674.855 187.909 676.469 186.636C678.105 185.341 679.355 183.534 680.219 181.216C681.105 178.898 681.548 176.182 681.548 173.068C681.548 169.955 681.116 167.25 680.253 164.955C679.389 162.659 678.139 160.886 676.503 159.636C674.866 158.386 672.878 157.761 670.537 157.761C668.151 157.761 666.139 158.409 664.503 159.705C662.866 161 661.628 162.795 660.787 165.091C659.946 167.386 659.526 170.045 659.526 173.068C659.526 176.114 659.946 178.807 660.787 181.148C661.651 183.466 662.889 185.284 664.503 186.602C666.139 187.898 668.151 188.545 670.537 188.545ZM741.25 176.955V146.886H755.773V199.25H741.83V189.739H741.284C740.102 192.807 738.136 195.273 735.386 197.136C732.659 199 729.33 199.932 725.398 199.932C721.898 199.932 718.818 199.136 716.159 197.545C713.5 195.955 711.42 193.693 709.92 190.761C708.443 187.83 707.693 184.318 707.67 180.227V146.886H722.193V177.636C722.216 180.727 723.045 183.17 724.682 184.966C726.318 186.761 728.511 187.659 731.261 187.659C733.011 187.659 734.648 187.261 736.17 186.466C737.693 185.648 738.92 184.443 739.852 182.852C740.807 181.261 741.273 179.295 741.25 176.955ZM782.321 200.239C778.98 200.239 776.003 199.659 773.389 198.5C770.776 197.318 768.707 195.58 767.185 193.284C765.685 190.966 764.935 188.08 764.935 184.625C764.935 181.716 765.469 179.273 766.537 177.295C767.605 175.318 769.06 173.727 770.901 172.523C772.741 171.318 774.832 170.409 777.173 169.795C779.537 169.182 782.014 168.75 784.605 168.5C787.651 168.182 790.105 167.886 791.969 167.614C793.832 167.318 795.185 166.886 796.026 166.318C796.866 165.75 797.287 164.909 797.287 163.795V163.591C797.287 161.432 796.605 159.761 795.241 158.58C793.901 157.398 791.991 156.807 789.514 156.807C786.901 156.807 784.821 157.386 783.276 158.545C781.73 159.682 780.707 161.114 780.207 162.841L766.776 161.75C767.457 158.568 768.798 155.818 770.798 153.5C772.798 151.159 775.378 149.364 778.537 148.114C781.719 146.841 785.401 146.205 789.582 146.205C792.491 146.205 795.276 146.545 797.935 147.227C800.616 147.909 802.991 148.966 805.06 150.398C807.151 151.83 808.798 153.67 810.003 155.92C811.207 158.148 811.81 160.818 811.81 163.932V199.25H798.037V191.989H797.628C796.787 193.625 795.662 195.068 794.253 196.318C792.844 197.545 791.151 198.511 789.173 199.216C787.196 199.898 784.912 200.239 782.321 200.239ZM786.48 190.216C788.616 190.216 790.503 189.795 792.139 188.955C793.776 188.091 795.06 186.932 795.991 185.477C796.923 184.023 797.389 182.375 797.389 180.534V174.977C796.935 175.273 796.31 175.545 795.514 175.795C794.741 176.023 793.866 176.239 792.889 176.443C791.912 176.625 790.935 176.795 789.957 176.955C788.98 177.091 788.094 177.216 787.298 177.33C785.594 177.58 784.105 177.977 782.832 178.523C781.56 179.068 780.571 179.807 779.866 180.739C779.162 181.648 778.81 182.784 778.81 184.148C778.81 186.125 779.526 187.636 780.957 188.682C782.412 189.705 784.253 190.216 786.48 190.216ZM837.599 168.977V199.25H823.077V146.886H836.918V156.125H837.531C838.69 153.08 840.634 150.67 843.361 148.898C846.088 147.102 849.395 146.205 853.281 146.205C856.918 146.205 860.088 147 862.793 148.591C865.497 150.182 867.599 152.455 869.099 155.409C870.599 158.341 871.349 161.841 871.349 165.909V199.25H856.827V168.5C856.849 165.295 856.031 162.795 854.372 161C852.713 159.182 850.429 158.273 847.52 158.273C845.565 158.273 843.838 158.693 842.338 159.534C840.861 160.375 839.702 161.602 838.861 163.216C838.043 164.807 837.622 166.727 837.599 168.977Z" fill="white"/>
<path d="M778.295 106.591C778.114 104.758 777.333 103.333 775.955 102.318C774.576 101.303 772.705 100.795 770.341 100.795C768.735 100.795 767.379 101.023 766.273 101.477C765.167 101.917 764.318 102.53 763.727 103.318C763.152 104.106 762.864 105 762.864 106C762.833 106.833 763.008 107.561 763.386 108.182C763.78 108.803 764.318 109.341 765 109.795C765.682 110.235 766.47 110.621 767.364 110.955C768.258 111.273 769.212 111.545 770.227 111.773L774.409 112.773C776.439 113.227 778.303 113.833 780 114.591C781.697 115.348 783.167 116.28 784.409 117.386C785.652 118.492 786.614 119.795 787.295 121.295C787.992 122.795 788.348 124.515 788.364 126.455C788.348 129.303 787.621 131.773 786.182 133.864C784.758 135.939 782.697 137.553 780 138.705C777.318 139.841 774.083 140.409 770.295 140.409C766.538 140.409 763.265 139.833 760.477 138.682C757.705 137.53 755.538 135.826 753.977 133.568C752.432 131.295 751.621 128.485 751.545 125.136H761.068C761.174 126.697 761.621 128 762.409 129.045C763.212 130.076 764.28 130.856 765.614 131.386C766.962 131.902 768.485 132.159 770.182 132.159C771.848 132.159 773.295 131.917 774.523 131.432C775.765 130.947 776.727 130.273 777.409 129.409C778.091 128.545 778.432 127.553 778.432 126.432C778.432 125.386 778.121 124.508 777.5 123.795C776.894 123.083 776 122.477 774.818 121.977C773.652 121.477 772.22 121.023 770.523 120.614L765.455 119.341C761.53 118.386 758.432 116.894 756.159 114.864C753.886 112.833 752.758 110.098 752.773 106.659C752.758 103.841 753.508 101.379 755.023 99.2727C756.553 97.1667 758.652 95.5227 761.318 94.3409C763.985 93.1591 767.015 92.5682 770.409 92.5682C773.864 92.5682 776.879 93.1591 779.455 94.3409C782.045 95.5227 784.061 97.1667 785.5 99.2727C786.939 101.379 787.682 103.818 787.727 106.591H778.295ZM794.983 139.75V93.2045H804.824V113.727H805.438L822.188 93.2045H833.983L816.71 114.045L834.188 139.75H822.415L809.665 120.614L804.824 126.523V139.75H794.983ZM863.983 106.591C863.801 104.758 863.021 103.333 861.642 102.318C860.263 101.303 858.392 100.795 856.028 100.795C854.422 100.795 853.066 101.023 851.96 101.477C850.854 101.917 850.006 102.53 849.415 103.318C848.839 104.106 848.551 105 848.551 106C848.521 106.833 848.695 107.561 849.074 108.182C849.468 108.803 850.006 109.341 850.688 109.795C851.369 110.235 852.157 110.621 853.051 110.955C853.945 111.273 854.9 111.545 855.915 111.773L860.097 112.773C862.127 113.227 863.991 113.833 865.688 114.591C867.384 115.348 868.854 116.28 870.097 117.386C871.339 118.492 872.301 119.795 872.983 121.295C873.68 122.795 874.036 124.515 874.051 126.455C874.036 129.303 873.309 131.773 871.869 133.864C870.445 135.939 868.384 137.553 865.688 138.705C863.006 139.841 859.771 140.409 855.983 140.409C852.225 140.409 848.953 139.833 846.165 138.682C843.392 137.53 841.225 135.826 839.665 133.568C838.119 131.295 837.309 128.485 837.233 125.136H846.756C846.862 126.697 847.309 128 848.097 129.045C848.9 130.076 849.968 130.856 851.301 131.386C852.65 131.902 854.172 132.159 855.869 132.159C857.536 132.159 858.983 131.917 860.21 131.432C861.453 130.947 862.415 130.273 863.097 129.409C863.778 128.545 864.119 127.553 864.119 126.432C864.119 125.386 863.809 124.508 863.188 123.795C862.581 123.083 861.688 122.477 860.506 121.977C859.339 121.477 857.907 121.023 856.21 120.614L851.142 119.341C847.218 118.386 844.119 116.894 841.847 114.864C839.574 112.833 838.445 110.098 838.46 106.659C838.445 103.841 839.195 101.379 840.71 99.2727C842.241 97.1667 844.339 95.5227 847.006 94.3409C849.672 93.1591 852.703 92.5682 856.097 92.5682C859.551 92.5682 862.566 93.1591 865.142 94.3409C867.733 95.5227 869.748 97.1667 871.188 99.2727C872.627 101.379 873.369 103.818 873.415 106.591H863.983Z" fill="#FF6E04"/>
</svg>
