<svg width="480" height="480" viewBox="0 0 480 480" fill="none" xmlns="http://www.w3.org/2000/svg">
<path d="M264.667 63.6C223.333 66.1333 186.8 80.6667 153.333 107.6C143.2 115.733 131.6 127.467 125.067 135.867L121.6 140.533L107.867 136.267C100.267 134 93.8667 132.4 93.6 132.667C92.9334 133.2 116.133 241.733 118.4 249.067C119.333 251.867 120.267 251.2 132.133 240.4C139.067 233.867 154 220.267 165.333 210C193.467 184.4 208.533 170.4 209.067 169.333C209.2 168.8 203.733 166.667 196.667 164.533C189.733 162.4 184 160.267 184 159.6C184 157.867 204.533 137.067 212.267 131.2C228.267 118.8 251.467 108.667 272.8 104.533C288 101.733 313.067 101.6 328.133 104.533C383.867 115.067 430.267 156 449.067 211.333C452.267 220.8 456 238.267 456 243.867C456 246 456.667 248.267 457.333 248.667C459.067 249.733 459.067 245.733 457.333 227.333C455.067 203.2 449.467 182.933 439.6 163.333C415.6 115.2 371.067 80.4 317.733 68C307.333 65.6 278.667 62.2667 273.333 62.9333C272.267 63.0667 268.4 63.3333 264.667 63.6Z" fill="#403D39"/>
<path d="M333.2 253.067C318.133 266.8 298 285.2 288.267 293.867C278.533 302.667 270.667 310.267 270.667 310.667C270.667 311.2 276.4 313.333 283.333 315.467C290.267 317.6 296 319.867 296 320.4C296 321.067 290.133 327.467 283.067 334.667C263.467 354.267 244.133 365.6 217.733 373.067C205.6 376.4 202.8 376.667 179.333 376.667C155.733 376.667 153.067 376.4 140.8 372.933C117.733 366.533 96.5333 355.333 78.8 340C59.4667 323.467 44.1333 302 34.6667 278.267C29.2 264.933 24 244.4 24 236.933C24 234.267 23.3333 231.733 22.4 231.2C20.4 230 21.8667 252.933 24.8 270C34 323.067 70.6667 371.867 120 396.667C142.133 407.733 162.4 413.467 189.733 416.133C228 419.867 273.2 408.4 307.467 386.4C324.667 375.333 344.667 357.333 354.8 344L358.267 339.467L370.8 343.2C377.733 345.333 384.133 347.333 385.2 347.733C387.467 348.533 387.467 348.133 380 314.667C377.067 301.067 371.6 276.267 368 259.467C364.267 242.667 361.067 228.667 360.933 228.4C360.667 228.267 348.133 239.333 333.2 253.067Z" fill="#403D39"/>
</svg>
