<svg viewBox="0 0 597 576" fill="none" xmlns="http://www.w3.org/2000/svg">
<ellipse cx="274" cy="251" rx="256" ry="251" fill="#00ACEF"/>
<ellipse cx="274.5" cy="253" rx="230.5" ry="228" fill="white"/>
<ellipse cx="274" cy="253" rx="217" ry="216" fill="white"/>
<path d="M49.05 458.021C51.488 458.021 53.42 457.17 54.846 455.468C56.272 453.766 56.985 451.42 56.985 448.43C56.985 444.796 56.111 441.852 54.363 439.598C52.615 437.298 50.039 436.148 46.635 436.148C44.381 436.148 42.265 436.838 40.287 438.218V477.893L52.293 480.515L50.016 485H21.312V481.136L27.798 476.03V437.597L20.139 435.251L22.416 430.766H33.87C37.964 430.766 41.989 430.628 45.945 430.352C48.889 430.168 51.051 430.076 52.431 430.076C56.019 430.076 59.193 430.789 61.953 432.215C64.713 433.595 66.852 435.504 68.37 437.942C69.888 440.38 70.647 443.094 70.647 446.084C70.647 449.396 69.382 452.501 66.852 455.399C64.322 458.297 61.125 460.574 57.261 462.23C53.397 463.886 49.625 464.622 45.945 464.438L42.909 462.575L45.186 458.09H49.05V458.021ZM119.567 485.069H75.9595V481.205L82.4455 476.099V437.528L74.7865 435.251L77.0635 430.766H118.877L123.845 429.524V447.119L120.05 448.637L111.563 436.01H94.9345V454.64H103.145L108.182 446.912H112.046V466.991L107.561 469.268L103.076 459.953H94.9345V479.756H111.011L120.74 465.68L124.535 467.267V486.311L119.567 485.069ZM183.276 440.15V485H177.342L144.981 448.085V476.858L154.779 480.515L152.571 485H132.561V481.136L139.047 475.685V439.46L131.388 435.251L133.665 430.766H145.809L177.342 466.646V438.839L167.544 435.251L169.821 430.766H189.831V434.63L183.276 440.15ZM247.544 472.925L249.407 477.065L236.711 484.862C234.457 485.46 232.295 485.851 230.225 486.035C228.155 486.265 225.924 486.38 223.532 486.38C218.012 486.38 213.113 485.207 208.835 482.861C204.557 480.515 201.245 477.295 198.899 473.201C196.553 469.061 195.38 464.369 195.38 459.125C195.38 453.743 197.128 448.775 200.624 444.221C204.12 439.621 208.467 436.01 213.665 433.388C218.909 430.72 223.877 429.386 228.569 429.386C231.421 429.386 234.779 429.731 238.643 430.421C242.507 431.111 245.336 431.847 247.13 432.629V449.051H240.644C236.596 441.231 231.237 437.321 224.567 437.321C221.669 437.321 219.024 438.126 216.632 439.736C214.286 441.346 212.423 443.554 211.043 446.36C209.663 449.166 208.973 452.317 208.973 455.813C208.973 459.907 209.64 463.679 210.974 467.129C212.354 470.533 214.424 473.27 217.184 475.34C219.944 477.364 223.348 478.376 227.396 478.376C227.58 478.376 228.431 478.376 229.949 478.376C231.467 478.376 233.146 478.238 234.986 477.962V464.162L223.877 461.471L226.154 456.986H254.03V460.85L247.544 466.37V472.925ZM317.607 485H291.939V481.136L299.46 476.651L295.251 466.37H273.93L270.135 475.616L280.692 480.515L278.484 485H256.197V481.136L263.649 475.547L281.313 432.974L293.25 429.455L312.846 476.996L319.884 480.515L317.607 485ZM284.694 440.357L276.138 461.057H293.112L284.694 440.357ZM352.798 430.076C357.95 430.076 362.504 431.226 366.46 433.526C370.462 435.78 373.544 438.931 375.706 442.979C377.914 447.027 379.018 451.604 379.018 456.71C379.018 461.954 377.362 466.807 374.05 471.269C370.784 475.685 366.713 479.204 361.837 481.826C356.961 484.402 352.315 485.69 347.899 485.69C345.783 485.69 343.69 485.575 341.62 485.345C338.17 485.115 335.525 485 333.685 485H322.783V481.136L329.269 476.03V437.597L321.61 435.251L323.887 430.766H333.616C337.848 430.766 341.988 430.628 346.036 430.352C349.164 430.168 351.418 430.076 352.798 430.076ZM349.9 479.273C352.798 479.273 355.42 478.445 357.766 476.789C360.158 475.133 362.021 472.833 363.355 469.889C364.735 466.945 365.425 463.633 365.425 459.953C365.425 455.537 364.758 451.558 363.424 448.016C362.136 444.428 360.135 441.576 357.421 439.46C354.753 437.298 351.441 436.217 347.485 436.217C345.415 436.217 343.506 436.769 341.758 437.873V477.962C344.104 478.836 346.795 479.273 349.831 479.273H349.9ZM437.179 439.736V463.61C437.179 468.44 435.96 472.58 433.522 476.03C431.13 479.48 428.14 482.079 424.552 483.827C421.01 485.529 417.56 486.38 414.202 486.38C409.786 486.38 405.807 485.483 402.265 483.689C398.769 481.849 396.032 479.342 394.054 476.168C392.122 472.948 391.156 469.337 391.156 465.335V437.252L383.566 435.251L385.774 430.766H410.2V434.63L403.645 439.736V462.851C403.645 467.773 404.91 471.614 407.44 474.374C409.97 477.088 413.788 478.445 418.894 478.445C420.826 478.445 422.735 477.87 424.621 476.72C426.507 475.524 428.071 473.799 429.313 471.545C430.555 469.291 431.176 466.623 431.176 463.541V438.356L423.172 435.251L425.38 430.766H443.734V434.63L437.179 439.736ZM506.279 485H480.611V481.136L488.132 476.651L483.922 466.37H462.602L458.807 475.616L469.364 480.515L467.156 485H444.868V481.136L452.321 475.547L469.985 432.974L481.922 429.455L501.518 476.996L508.556 480.515L506.279 485ZM473.366 440.357L464.81 461.057H481.784L473.366 440.357ZM562.17 440.15V485H556.236L523.875 448.085V476.858L533.673 480.515L531.465 485H511.455V481.136L517.941 475.685V439.46L510.282 435.251L512.559 430.766H524.703L556.236 466.646V438.839L546.438 435.251L548.715 430.766H568.725V434.63L562.17 440.15Z" fill="black"/>
<path d="M6.31641 558H3.79395V528.141H6.31641V558ZM11.8945 541.819L5.41406 548.177L5.16797 545.388L10.377 539.974L21.5947 528.141H24.7939L11.8945 541.819ZM10.1104 542.66L11.6279 540.63L25.7578 558H22.6816L10.1104 542.66ZM48.8906 558H32.0947V555.867H48.8906V558ZM32.8535 558H30.3311V528.141H32.8535V558ZM46.7988 543.686H32.0947V541.532H46.7988V543.686ZM48.7881 530.294H32.0947V528.141H48.7881V530.294ZM71.5107 558H56.0273V555.867H71.5107V558ZM56.7656 558H54.2432V528.141H56.7656V558ZM96.0791 528.141V548.361C96.0791 550.604 95.6074 552.47 94.6641 553.96C93.7207 555.45 92.4492 556.564 90.8496 557.303C89.2637 558.041 87.5068 558.41 85.5791 558.41C83.5967 558.41 81.8125 558.041 80.2266 557.303C78.6406 556.564 77.3828 555.45 76.4531 553.96C75.5371 552.47 75.0791 550.604 75.0791 548.361V528.141H77.5811V548.361C77.5811 550.098 77.9229 551.554 78.6064 552.729C79.3037 553.905 80.2471 554.794 81.4365 555.396C82.6396 555.983 84.0205 556.277 85.5791 556.277C87.124 556.277 88.498 555.983 89.7012 555.396C90.9043 554.794 91.8477 553.905 92.5312 552.729C93.2148 551.554 93.5566 550.098 93.5566 548.361V528.141H96.0791ZM112.813 528.141C114.878 528.141 116.669 528.476 118.187 529.146C119.704 529.815 120.873 530.807 121.693 532.119C122.527 533.418 122.944 535.018 122.944 536.918C122.944 538.326 122.65 539.604 122.062 540.753C121.475 541.901 120.654 542.865 119.602 543.645C118.562 544.41 117.359 544.937 115.992 545.224L115.11 545.552H104.754L104.713 543.419H113.367C114.939 543.419 116.245 543.118 117.284 542.517C118.323 541.901 119.103 541.102 119.622 540.117C120.155 539.119 120.422 538.053 120.422 536.918C120.422 534.881 119.766 533.268 118.453 532.078C117.154 530.889 115.274 530.294 112.813 530.294H105.636V558H103.113V528.141H112.813ZM113.818 544.649L116.525 544.629L124.236 557.733V558H121.529L113.818 544.649ZM129.343 558H126.718L137.997 528.141H139.843L139.679 529.925L129.343 558ZM138.715 529.925L138.592 528.141H140.396L151.696 558H149.071L138.715 529.925ZM147.226 549.633H131.373V547.479H147.226V549.633ZM176.183 543.686H158.054V541.532H176.183V543.686ZM158.648 558H156.126V528.141H158.648V558ZM178.233 558H175.711V528.141H178.233V558ZM185.698 558H183.073L194.353 528.141H196.198L196.034 529.925L185.698 558ZM195.07 529.925L194.947 528.141H196.752L208.052 558H205.427L195.07 529.925ZM203.581 549.633H187.729V547.479H203.581V549.633ZM234.712 558H232.169L215.004 532.447V558H212.481V528.141H215.004L232.21 553.693V528.141H234.712V558Z" fill="black"/>
<path d="M261.66 543.624L261.619 541.512H268.858C271.073 541.512 272.782 541.04 273.985 540.097C275.202 539.14 275.811 537.731 275.811 535.872C275.811 533.985 275.209 532.584 274.006 531.668C272.803 530.752 271.005 530.294 268.612 530.294H262.316V558H259.794V528.141H268.612C271.647 528.141 274.026 528.763 275.749 530.007C277.485 531.251 278.354 533.227 278.354 535.934C278.354 537.164 278.08 538.278 277.533 539.276C277 540.261 276.228 541.067 275.216 541.696C274.218 542.312 273.028 542.694 271.647 542.845L270.068 543.624H261.66ZM260.86 558L262.152 555.867H269.884C272.085 555.867 273.801 555.313 275.031 554.206C276.275 553.085 276.897 551.561 276.897 549.633C276.897 548.498 276.651 547.479 276.159 546.577C275.667 545.661 274.915 544.943 273.903 544.424C272.905 543.891 271.627 543.624 270.068 543.624H264.839L264.88 541.512H272.283L272.734 542.291C274.074 542.428 275.243 542.838 276.241 543.521C277.253 544.205 278.032 545.073 278.579 546.126C279.14 547.179 279.42 548.334 279.42 549.592C279.42 552.312 278.538 554.397 276.774 555.847C275.024 557.282 272.728 558 269.884 558H260.86ZM285.019 558H282.394L293.673 528.141H295.519L295.354 529.925L285.019 558ZM294.391 529.925L294.268 528.141H296.072L307.372 558H304.747L294.391 529.925ZM302.901 549.633H287.049V547.479H302.901V549.633ZM321.44 528.141C323.505 528.141 325.296 528.476 326.813 529.146C328.331 529.815 329.5 530.807 330.32 532.119C331.154 533.418 331.571 535.018 331.571 536.918C331.571 538.326 331.277 539.604 330.689 540.753C330.102 541.901 329.281 542.865 328.229 543.645C327.189 544.41 325.986 544.937 324.619 545.224L323.737 545.552H313.381L313.34 543.419H321.994C323.566 543.419 324.872 543.118 325.911 542.517C326.95 541.901 327.729 541.102 328.249 540.117C328.782 539.119 329.049 538.053 329.049 536.918C329.049 534.881 328.393 533.268 327.08 532.078C325.781 530.889 323.901 530.294 321.44 530.294H314.263V558H311.74V528.141H321.44ZM322.445 544.649L325.152 544.629L332.863 557.733V558H330.156L322.445 544.649ZM337.97 558H335.345L346.624 528.141H348.47L348.306 529.925L337.97 558ZM347.342 529.925L347.219 528.141H349.023L360.323 558H357.698L347.342 529.925ZM355.853 549.633H340V547.479H355.853V549.633ZM386.983 558H384.44L367.275 532.447V558H364.753V528.141H367.275L384.481 553.693V528.141H386.983V558ZM394.079 558H391.454L402.733 528.141H404.579L404.415 529.925L394.079 558ZM403.451 529.925L403.328 528.141H405.133L416.433 558H413.808L403.451 529.925ZM411.962 549.633H396.109V547.479H411.962V549.633ZM443.093 558H440.55L423.385 532.447V558H420.862V528.141H423.385L440.591 553.693V528.141H443.093V558ZM472.255 554.452C471.913 554.944 471.325 555.498 470.491 556.113C469.657 556.729 468.536 557.269 467.128 557.733C465.72 558.185 463.97 558.41 461.878 558.41C459.54 558.41 457.469 557.856 455.664 556.749C453.859 555.628 452.444 554.049 451.419 552.012C450.407 549.961 449.901 547.548 449.901 544.772V541.143C449.901 538.395 450.366 536.022 451.296 534.026C452.239 532.017 453.579 530.465 455.315 529.371C457.052 528.277 459.109 527.73 461.488 527.73C463.703 527.73 465.569 528.113 467.087 528.879C468.604 529.645 469.787 530.697 470.635 532.037C471.496 533.363 472.029 534.867 472.234 536.549H469.712C469.521 535.359 469.124 534.259 468.522 533.247C467.921 532.235 467.046 531.422 465.897 530.807C464.763 530.191 463.293 529.884 461.488 529.884C459.547 529.884 457.899 530.355 456.546 531.299C455.206 532.229 454.188 533.534 453.49 535.216C452.793 536.897 452.444 538.859 452.444 541.102V544.772C452.444 547.083 452.834 549.1 453.613 550.822C454.406 552.545 455.507 553.885 456.915 554.842C458.337 555.799 459.998 556.277 461.898 556.277C463.416 556.277 464.701 556.134 465.754 555.847C466.82 555.546 467.682 555.197 468.338 554.801C468.994 554.391 469.466 554.015 469.753 553.673V545.941H461.734V543.809H472.255V554.452ZM496.372 550.658C496.372 549.551 496.119 548.607 495.613 547.828C495.121 547.049 494.28 546.358 493.091 545.757C491.901 545.142 490.274 544.54 488.21 543.952C486.706 543.542 485.353 543.084 484.149 542.578C482.96 542.072 481.935 541.491 481.073 540.835C480.226 540.179 479.576 539.413 479.125 538.538C478.674 537.649 478.448 536.617 478.448 535.441C478.448 533.896 478.872 532.55 479.72 531.401C480.581 530.239 481.764 529.337 483.268 528.694C484.785 528.052 486.521 527.73 488.477 527.73C490.568 527.73 492.38 528.127 493.911 528.92C495.442 529.713 496.625 530.786 497.459 532.14C498.293 533.479 498.71 534.983 498.71 536.651H496.188C496.188 535.353 495.88 534.197 495.265 533.186C494.663 532.16 493.788 531.354 492.64 530.766C491.491 530.178 490.104 529.884 488.477 529.884C486.836 529.884 485.455 530.137 484.334 530.643C483.227 531.135 482.393 531.798 481.832 532.632C481.271 533.466 480.991 534.382 480.991 535.38C480.991 536.323 481.237 537.178 481.729 537.943C482.235 538.695 483.069 539.379 484.231 539.994C485.407 540.609 486.993 541.19 488.989 541.737C491.108 542.298 492.906 542.961 494.383 543.727C495.859 544.492 496.98 545.429 497.746 546.536C498.525 547.644 498.915 549.004 498.915 550.617C498.915 552.23 498.471 553.625 497.582 554.801C496.693 555.963 495.477 556.858 493.932 557.487C492.387 558.103 490.623 558.41 488.641 558.41C487.314 558.41 485.995 558.239 484.683 557.897C483.37 557.556 482.167 557.029 481.073 556.318C479.993 555.594 479.125 554.664 478.469 553.529C477.826 552.395 477.505 551.041 477.505 549.469H480.027C480.027 550.727 480.28 551.793 480.786 552.668C481.292 553.529 481.962 554.227 482.796 554.76C483.644 555.293 484.573 555.683 485.585 555.929C486.597 556.161 487.615 556.277 488.641 556.277C490.213 556.277 491.573 556.045 492.722 555.58C493.87 555.102 494.766 554.445 495.408 553.611C496.051 552.764 496.372 551.779 496.372 550.658ZM507.446 558H504.924V528.141H507.446V558ZM515.034 558H512.409L523.688 528.141H525.534L525.37 529.925L515.034 558ZM524.406 529.925L524.283 528.141H526.088L537.388 558H534.763L524.406 529.925ZM532.917 549.633H517.064V547.479H532.917V549.633ZM564.048 558H561.505L544.34 532.447V558H541.817V528.141H544.34L561.546 553.693V528.141H564.048V558ZM593.21 554.452C592.868 554.944 592.28 555.498 591.446 556.113C590.612 556.729 589.491 557.269 588.083 557.733C586.675 558.185 584.925 558.41 582.833 558.41C580.495 558.41 578.424 557.856 576.619 556.749C574.814 555.628 573.399 554.049 572.374 552.012C571.362 549.961 570.856 547.548 570.856 544.772V541.143C570.856 538.395 571.321 536.022 572.251 534.026C573.194 532.017 574.534 530.465 576.271 529.371C578.007 528.277 580.064 527.73 582.443 527.73C584.658 527.73 586.524 528.113 588.042 528.879C589.56 529.645 590.742 530.697 591.59 532.037C592.451 533.363 592.984 534.867 593.189 536.549H590.667C590.476 535.359 590.079 534.259 589.478 533.247C588.876 532.235 588.001 531.422 586.853 530.807C585.718 530.191 584.248 529.884 582.443 529.884C580.502 529.884 578.854 530.355 577.501 531.299C576.161 532.229 575.143 533.534 574.445 535.216C573.748 536.897 573.399 538.859 573.399 541.102V544.772C573.399 547.083 573.789 549.1 574.568 550.822C575.361 552.545 576.462 553.885 577.87 554.842C579.292 555.799 580.953 556.277 582.854 556.277C584.371 556.277 585.656 556.134 586.709 555.847C587.775 555.546 588.637 555.197 589.293 554.801C589.949 554.391 590.421 554.015 590.708 553.673V545.941H582.689V543.809H593.21V554.452Z" fill="black"/>
<path d="M359.497 167.816L405.409 121.761C407.358 119.806 410.583 120.127 412.118 122.43L422.709 138.31C424.168 140.498 423.429 143.483 421.124 144.715L364.62 174.889C363.666 175.399 362.56 175.533 361.513 175.268C360.467 175.002 359.554 174.354 358.95 173.449C358.379 172.593 358.121 171.561 358.221 170.533C358.32 169.504 358.772 168.543 359.497 167.816ZM367.09 207.366C367.262 208.218 367.738 208.975 368.428 209.493C369.118 210.011 369.972 210.253 370.827 210.171L421.434 205.387C421.921 205.341 422.393 205.191 422.82 204.948C423.246 204.705 423.617 204.373 423.909 203.975C424.2 203.577 424.405 203.121 424.511 202.637C424.617 202.153 424.621 201.652 424.523 201.166L421.503 186.227C421.066 184.061 418.791 182.831 416.771 183.669L369.183 203.392C368.432 203.704 367.812 204.271 367.429 204.997C367.047 205.722 366.927 206.56 367.09 207.366ZM329.304 152.978C330.02 153.457 330.886 153.652 331.735 153.524C332.584 153.396 333.357 152.955 333.905 152.286L366.349 112.661C366.661 112.279 366.891 111.835 367.022 111.358C367.154 110.881 367.185 110.381 367.113 109.89C367.041 109.4 366.868 108.93 366.605 108.512C366.342 108.094 365.995 107.737 365.586 107.464L353.022 99.0629C351.2 97.845 348.733 98.6041 347.89 100.644L328.01 148.67C327.697 149.428 327.654 150.274 327.89 151.06C328.126 151.847 328.626 152.525 329.304 152.978Z" fill="#FFD469"/>
<path d="M253.514 393.086L243.74 398.875C235.795 403.58 225.589 400.872 220.943 392.826L195.028 347.946C190.382 339.9 193.056 329.563 201.001 324.857L210.775 319.068C218.72 314.363 228.926 317.071 233.573 325.117L259.487 369.997C264.133 378.043 261.459 388.381 253.514 393.086Z" fill="#00B1FF"/>
<path d="M193.605 349.043L288.307 296.825L223.568 194.167L137.963 258.578C137.411 258.935 114.274 280.376 139.684 320.67C165.093 360.964 193.605 349.043 193.605 349.043Z" fill="#0096D1"/>
<path d="M341.626 190.252C369.952 235.169 387.113 283.83 375.262 291.495C363.412 299.16 327.038 262.928 298.712 218.01C270.386 173.092 253.225 124.432 265.075 116.767C276.925 109.101 313.3 145.334 341.626 190.252Z" fill="#727272"/>
<path d="M328.289 252.58C338.106 246.229 335.293 224.002 322.007 202.934C308.72 181.865 289.99 169.934 280.173 176.285C270.356 182.635 273.169 204.863 286.455 225.931C299.742 246.999 318.472 258.93 328.289 252.58Z" fill="#B2B2B2"/>
<path d="M374.745 291.83C364.394 298.525 329.236 261.507 300.91 216.589C272.584 171.671 254.207 123.797 264.558 117.102C265.154 116.716 265.823 116.461 266.554 116.321C261.67 116.208 256.886 118.787 254.055 124.27C241.579 148.434 209.739 202.045 209.739 202.045C209.739 202.045 193.94 223.591 221.714 267.634C249.488 311.676 276.303 306.165 276.303 306.165C276.303 306.165 337.218 299.863 363.982 298.568C370.319 298.261 374.732 294.698 376.565 289.891C376.079 290.702 375.476 291.357 374.745 291.83Z" fill="#D1D1D1"/>
<path d="M152.334 286.803C150.887 286.805 149.462 286.437 148.192 285.733C146.922 285.029 145.849 284.012 145.07 282.776C142.51 278.716 143.684 273.325 147.692 270.733L183.095 247.833C187.102 245.241 192.426 246.429 194.986 250.489C197.545 254.548 196.371 259.939 192.364 262.531L156.961 285.431C155.58 286.327 153.974 286.803 152.334 286.803Z" fill="#00B1FF"/>
</svg>
